<svg id="Layer_1" data-name="Layer 1" xmlns="http://www.w3.org/2000/svg" viewBox="0 0 104 102.72"><title>CentriAir3</title><path d="M52.76,0h-.09a51.36,51.36,0,0,0-.15,102.72h.1A51.36,51.36,0,0,0,52.76,0ZM86,84.91A46.91,46.91,0,0,1,52.68,98.7h-.17A47.3,47.3,0,0,1,19.3,17.81,47,47,0,0,1,52.6,4h.17A47.3,47.3,0,0,1,86,84.91Z" fill="#007ab7"/><path d="M56.35,75.51l.12.18a.36.36,0,0,1,.06.11,15.21,15.21,0,0,0,13.85,9,16.26,16.26,0,0,0,3.59-.4A15.23,15.23,0,0,0,74,54.75l-.32-.08v-.34c0-2.82,0-5.66,0-8.49V39.77c0-2.54,0-5.17,0-7.77a7.12,7.12,0,0,0-6.06-6.91A15.32,15.32,0,0,0,65,25c-.48,0-1,0-1.44,0a6.79,6.79,0,0,0-.9,0L62,25h-.45V24.6c0-.16,0-.39.05-.55a4.85,4.85,0,0,0,0-.86,1.91,1.91,0,0,0-1.85-2.05,1.8,1.8,0,0,0-1.37.43,2.26,2.26,0,0,0-.71,1.6c0,.37,0,.85,0,1.34l0,.45h-.45c-4.87,0-10.07,0-15.9,0h-.46l0-.45a10.25,10.25,0,0,0-.05-1.65A1.81,1.81,0,0,0,39,21.14,1.84,1.84,0,0,0,37.06,23c0,.54,0,1.06,0,1.54l0,.45H34.94c-.7,0-1.4,0-2.11,0A7.47,7.47,0,0,0,27.21,27a7.85,7.85,0,0,0-2.27,5.69c.07,8,0,16,0,23.86v.13c0,3.69,0,7.37,0,11.06,0,4.68,3.05,7.7,7.77,7.7h23.4ZM78.48,61.59a11.12,11.12,0,0,1,3.27,8A11.41,11.41,0,0,1,70.39,80.89a11.17,11.17,0,0,1-8-3.35,11.36,11.36,0,0,1-3.3-8,11.32,11.32,0,0,1,19.38-7.91ZM28.85,34.42c0-.41,0-.81,0-1.2a13,13,0,0,1,.05-1.43,3.29,3.29,0,0,1,3.18-2.92l1.54,0h3.42l0,.44c0,.54,0,1.07,0,1.52A1.84,1.84,0,0,0,39,32.7,1.87,1.87,0,0,0,40.93,31a7,7,0,0,0,0-.78v-.23c0-.29,0-.5,0-.66l0-.4.39,0h4.56c3.74,0,7.59,0,11.38,0h.47l0,.47a7.37,7.37,0,0,0,0,1.7,1.95,1.95,0,0,0,3.88-.22v-.33c0-.52,0-.93.05-1.19l0-.34.34,0c.26,0,.66,0,1.15,0h3.21A3.32,3.32,0,0,1,69.82,32c0,.42,0,.85,0,1.31s0,.74,0,1.09l0,.45h-.45c-2.12,0-4.24,0-6.35,0H44.28q-7.51,0-15,0h-.45ZM55.28,71.1l.06.48h-.48c-7.56,0-15.13,0-22.69,0a3.27,3.27,0,0,1-3.28-3c0-.31,0-.65,0-1V60.61c0-7,0-14.3,0-21.46v-.41l.55-.07q7.64,0,15.28,0H54q7.72,0,15.47,0h.43v.43c0,4.72,0,9.57,0,14.81v.39l-.39,0A15.4,15.4,0,0,0,58.52,60,15.18,15.18,0,0,0,55.28,71.1Z" fill="#007ab7"/><path d="M60.7,50.76c0-1.08-.79-2.33-2.83-2.34H38.22a3,3,0,0,0-2.21.77,2.26,2.26,0,0,0-.62,1.69c0,.87.41,2.32,2.79,2.32H57.84a3,3,0,0,0,2.25-.8A2.19,2.19,0,0,0,60.7,50.76Z" fill="#007ab7"/><path d="M49.76,57.1H38.11a2.82,2.82,0,0,0-2.12.74,2.26,2.26,0,0,0-.6,1.71c0,.53.26,2.28,2.71,2.29H49.74a2.41,2.41,0,0,0,2.7-2.35C52.45,58,51.4,57.11,49.76,57.1Z" fill="#007ab7"/><path d="M66.87,75.7a2.58,2.58,0,0,0,1.8.83,2.54,2.54,0,0,0,1.76-.78l4.79-4.57L79,67.58a2.64,2.64,0,0,0,.89-1.86v-.1a2.3,2.3,0,0,0-1.45-2.07,2.47,2.47,0,0,0-2.8.68L73,66.77,68.7,70.84c-1-1-2-2.08-3.26-3.26a2.59,2.59,0,0,0-1.95-.84,2.23,2.23,0,0,0-1.58.84,2.36,2.36,0,0,0,.19,3.35l4.42,4.41Z" fill="#007ab7"/><circle cx="14.59" cy="17.92" r="14.59" fill="#00aeef"/><text transform="translate(8.3 23.76)" font-size="20.01" fill="#fff" font-family="Metropolis-Black, Metropolis" font-weight="800" letter-spacing="0.05em">2</text></svg>