<svg id="Layer_1" data-name="Layer 1" xmlns="http://www.w3.org/2000/svg" viewBox="0 0 102.71 102.71"><title>Untitled-5</title><circle cx="51.36" cy="51.36" r="47.35" fill="#fff"/><path d="M51.34,0h-.08a51.36,51.36,0,0,0,.1,102.71h0A51.36,51.36,0,1,0,51.34,0Zm0,98.7h-.06A47.31,47.31,0,0,1,17.94,17.86,47,47,0,0,1,51.34,4h.07a47.35,47.35,0,0,1,0,94.69Z" fill="#007ab7"/><path d="M28.17,55.31a3.85,3.85,0,0,1,2.89,1.35c3.05,3.06,6.17,6.06,9.15,9.21,1.07,1.13,1.62.94,2.62-.07Q57.07,51.46,71.38,37.2c1-1,2-1.87,3.57-1.58a3.16,3.16,0,0,1,2.57,2.27,3.25,3.25,0,0,1-1,3.44q-5,5-10,10L44.51,73.4c-2.22,2.22-3.8,2.23-6,0L26.2,61.12a3.25,3.25,0,0,1-.84-3.89A3.12,3.12,0,0,1,28.17,55.31Z" fill="#007ab7"/><path d="M52.13,1H52a51,51,0,0,0-.15,102.08H52A51,51,0,0,0,52.13,1Zm33,84.37A46.64,46.64,0,0,1,52.05,99h-.17A47,47,0,0,1,52,5h.16a47,47,0,0,1,33,80.35Z" fill="#007ab7"/></svg>