<svg id="Layer_1" data-name="Layer 1" xmlns="http://www.w3.org/2000/svg" viewBox="0 0 104 102.72"><title>CentriAir3</title><path d="M52.76,0h-.09a51.36,51.36,0,0,0-.15,102.72h.1A51.36,51.36,0,0,0,52.76,0ZM86,84.91A46.91,46.91,0,0,1,52.68,98.7h-.17A47.34,47.34,0,0,1,52.61,4h.16A47.3,47.3,0,0,1,86,84.91Z" fill="#315FAA"/><path d="M71.5,25.1H65.58V22.74a2.36,2.36,0,0,0-4.71,0V25.1H43.62V22.74a2.35,2.35,0,1,0-4.7,0V25.1H33.78A9.77,9.77,0,0,0,24,34.86V72.57a9.77,9.77,0,0,0,9.76,9.76H71.5a9.77,9.77,0,0,0,9.76-9.76V34.86A9.77,9.77,0,0,0,71.5,25.1Zm5,47.47a5.06,5.06,0,0,1-5,5.05H33.78a5.06,5.06,0,0,1-5.05-5.05V40H76.55Zm0-37.28H28.73v-.43a5.06,5.06,0,0,1,5.05-5.06h5.14v1.57a2.35,2.35,0,1,0,4.7,0V29.8H60.87v1.57a2.36,2.36,0,0,0,4.71,0V29.8H71.5a5.06,5.06,0,0,1,5,5.06Z" fill="#315FAA"/><path d="M52.68,76.23h0a17,17,0,0,0,12-29,16.89,16.89,0,0,0-12-5h0a17,17,0,0,0,.1,34Zm5.2-7.5c0-.21.08-.28.42-.47a2.68,2.68,0,0,0,.28-.18,10,10,0,0,0-1.45-17,3.5,3.5,0,0,0-1.45-.43,1.27,1.27,0,0,0-.66.17c-.65.4-.73,1.34-.73,2v.81c0,1.61,0,3.28,0,4.91,0,.39,0,.4-.47.42-1.41.06-2.26.1-2.56-.19S51,57.6,51,56.18V55c0-.81,0-1.62,0-2.43a2,2,0,0,0-.74-1.8,2,2,0,0,0-2,.16,10,10,0,0,0-1.68,17,1.54,1.54,0,0,1,.78,1.55c-.05.69,0,1.37,0,2.15v.4c-5.43-1.83-9.42-8.49-8.6-14.54a14,14,0,0,1,27.8.35,13.78,13.78,0,0,1-8.65,14.19V68.73ZM54.83,70c0,.75,0,1.53,0,2.31a.9.9,0,0,1-.13.63s-.15.16-.6.17l-.31,0-.18,0c-1.54.14-2.54.17-2.88-.14s-.39-1.27-.39-2.78v-.11a1.33,1.33,0,0,1,0-.2,4.33,4.33,0,0,0-2-4.53,6.43,6.43,0,0,1-2.74-5.18,7.12,7.12,0,0,1,2.34-5.33v1.16c0,1.34,0,2.61,0,3.89,0,1.56.45,2,2,2h2.22c1.09,0,2.17,0,3.26,0a1.84,1.84,0,0,0,1.44-.46A1.93,1.93,0,0,0,57.33,60c0-1.31,0-2.59,0-4V54.91c2,1.44,3.13,5.13,1.61,8.15a6.46,6.46,0,0,1-2.84,3,2.14,2.14,0,0,0-1.27,2.2C54.84,68.83,54.83,69.43,54.83,70Z" fill="#315FAA"/><circle cx="14.59" cy="18.98" r="14.59" fill="#52A3D8"/><text transform="translate(8.3 24.83)" font-size="20.01" fill="#fff" font-family="Metropolis-Black, Metropolis" font-weight="800" letter-spacing="0.05em">6</text></svg>