<svg id="Layer_1" data-name="Layer 1" xmlns="http://www.w3.org/2000/svg" viewBox="0 0 72.05 72"><title>CentriAir_MU</title><path d="M69.41,44.12a1.79,1.79,0,0,0,2.06-1.75,35.75,35.75,0,0,0,.17-11.76c-.41-2.63-.51-2.7-3.14-2.68h0a2.42,2.42,0,0,1-2.72-2,10.47,10.47,0,0,0-1.26-3.1c-1.16-1.82-.91-3.29.81-4.63a1.65,1.65,0,0,0,.5-2.5,36.59,36.59,0,0,0-9.52-9.5,1.9,1.9,0,0,0-1.33-.38.78.78,0,0,0-.53.35c-2,3-4.42,2-6.68.7a4.55,4.55,0,0,0-.59-.25L47,6.58c-2.75-1-2.83-1.1-2.85-4,0-1.26-.43-1.78-1.6-2A35.25,35.25,0,0,0,29.25.66c-.56.12-1.48.45-1.31,1.47.57,3.43-1.81,4.37-3.65,4.78A4.07,4.07,0,0,0,23,7.5c-1.85,1.26-3.41,1-4.78-.8a1.64,1.64,0,0,0-2.52-.42,36.8,36.8,0,0,0-9.39,9.4c-.35.52-.82,1.48.07,2.11,2.79,2,1.89,4.22.8,6a5.07,5.07,0,0,0-.43.94l-.1.27c-1.09,2.81-1.21,2.89-4.08,2.94-1.16,0-1.69.38-1.87,1.32a34.64,34.64,0,0,0,0,13.61c.06.33.36,1.41,1.33,1.23,3.42-.66,4.43,1.57,5,3.85a3.81,3.81,0,0,0,.54,1.17c1.24,1.87,1,3.43-.85,4.78a1.61,1.61,0,0,0-.37,2.5,37.12,37.12,0,0,0,9.4,9.39c.33.22,1.44.88,2.13-.1a3.64,3.64,0,0,1,3-1.83,5.38,5.38,0,0,1,2.79,1,4,4,0,0,0,1.33.56c2.32.42,3.29,1.73,3,4-.16,1.16.35,1.77,1.71,2a37.56,37.56,0,0,0,12.28.16,2.69,2.69,0,0,0,1.89-.86,2.42,2.42,0,0,0,.31-1.84,2.61,2.61,0,0,1,2.1-3.23,19.12,19.12,0,0,0,3.59-1.49,2.51,2.51,0,0,1,3.49.6l.16.19a2.4,2.4,0,0,0,2,1.16l.13,0a1.92,1.92,0,0,0,.55-.22,35.17,35.17,0,0,0,9.74-9.75,1.25,1.25,0,0,0-.15-1.82c-2.81-1.92-2-4.14-.74-6.24a3.92,3.92,0,0,0,.31-.75c0-.11.07-.22.11-.32,1-2.73,1.16-2.85,3.86-2.85A.28.28,0,0,1,69.41,44.12ZM68.81,40c-.12.75-.34,1.14-1.25,1.21A5,5,0,0,0,63,44.85c-.53,1.46-1.14,2.85-1.72,4.14a4.89,4.89,0,0,0,.61,5.54l.15.17a1,1,0,0,1,.13,1.57,35.78,35.78,0,0,1-5.9,5.86,4.85,4.85,0,0,1-.41.28l-.38.23-.94-.77A4.87,4.87,0,0,0,49,61.28a39.5,39.5,0,0,1-4,1.65,5.07,5.07,0,0,0-3.84,4.62c-.08.86-.36,1.15-1.19,1.26a33,33,0,0,1-4,.25,32.28,32.28,0,0,1-4-.26c-.92-.11-1.13-.53-1.19-1.27-.16-2.28-1.42-3.79-3.83-4.61a42.88,42.88,0,0,1-4-1.66,4.75,4.75,0,0,0-5.5.64,1.33,1.33,0,0,1-2.05,0,38,38,0,0,1-5.28-5.26,1.4,1.4,0,0,1,0-2.17,4.7,4.7,0,0,0,.58-5.5,43.53,43.53,0,0,1-1.79-4.31A4.74,4.74,0,0,0,4.61,41.2c-1.1-.1-1.36-.6-1.45-1.43a36,36,0,0,1,0-7.63c.08-.76.33-1.23,1.35-1.32A4.82,4.82,0,0,0,9,27.25a35.36,35.36,0,0,1,1.46-3.53l.35-.77a4.74,4.74,0,0,0-.58-5.37,1.41,1.41,0,0,1-.06-2.17A38.54,38.54,0,0,1,15.53,10a1.25,1.25,0,0,1,1.92,0c1.65,1.47,3.55,1.66,5.8.58a36.83,36.83,0,0,1,3.83-1.59,4.89,4.89,0,0,0,3.73-4.49c.08-.93.39-1.26,1.3-1.37a32.83,32.83,0,0,1,7.8,0c1,.12,1.19.51,1.28,1.36A5,5,0,0,0,45,9.05c1.22.41,2.41.94,3.56,1.46l.58.26a4.67,4.67,0,0,0,5.35-.61,1.43,1.43,0,0,1,2.2,0,40.31,40.31,0,0,1,5.26,5.28c.51.63.84,1.17.05,2-1.46,1.59-1.66,3.43-.63,5.64.73,1.58,1.32,3,1.79,4.3a4.74,4.74,0,0,0,4.21,3.4c1.13.12,1.39.59,1.52,1.53A25.34,25.34,0,0,1,68.81,40Z" fill="#007ab7"/><path d="M36,12.08h0a23.92,23.92,0,0,0,.12,47.84h0A23.89,23.89,0,0,0,52.94,19.11,23.83,23.83,0,0,0,36,12.08Zm4,37c0,.86,0,1.73,0,2.57,0,1.08,0,2.2,0,3.29a1.86,1.86,0,0,1-.37,1.44,1.8,1.8,0,0,1-1.38.5,2.21,2.21,0,0,0-.37,0l-.31,0c-1.06.09-1.92.16-2.62.16a3,3,0,0,1-2.11-.55c-.75-.7-.79-2-.79-4.55v-.16a2.54,2.54,0,0,1,0-.39,5.57,5.57,0,0,0-2.65-5.89,10,10,0,0,1-4.28-8.09,11.13,11.13,0,0,1,4.43-9l.41-.3v3.16c0,1.95,0,3.82,0,5.68s.33,2.17,2.21,2.18h3.21c1.58,0,3.16,0,4.73,0a2.11,2.11,0,0,0,1.58-.47,2.08,2.08,0,0,0,.46-1.56c0-1.93,0-3.82,0-5.81V28.47l.37.19c3.59,1.83,5.88,8.14,3.33,13.21a10.1,10.1,0,0,1-4.43,4.66A2.4,2.4,0,0,0,39.93,49.05Zm3.31,6.47-.33.11V49.77a1.44,1.44,0,0,1,1-1.3,3.13,3.13,0,0,0,.36-.22,13.82,13.82,0,0,0-2-23.49c-1.12-.57-1.89-.7-2.36-.42s-.7,1.05-.71,2.32v1.17c0,2.33,0,4.74,0,7.11,0,1-.31,1.3-1.29,1.34H37.8c-2.39.1-3.59.16-4.25-.48s-.66-1.83-.66-4.23c0-.53,0-1.06,0-1.59,0-1.19,0-2.39,0-3.58s-.26-1.73-.73-2-1.19-.2-2.16.26a13.82,13.82,0,0,0-2.32,23.43A3,3,0,0,1,29.1,51a28.88,28.88,0,0,0,0,3c0,.44,0,.89,0,1.33v.34l-.33-.1c-8.51-2.42-14.86-12.74-13.59-22.06A21,21,0,0,1,35.93,15h0C47,15,55.56,22.8,56.9,34A20.66,20.66,0,0,1,43.24,55.52Z" fill="#007ab7"/></svg>