<svg id="Layer_1" data-name="Layer 1" xmlns="http://www.w3.org/2000/svg" viewBox="0 0 104 103.38"><title>CentriAir3</title><path d="M52.43,0h-.1a51.69,51.69,0,0,0-.14,103.38h.1A51.69,51.69,0,0,0,52.43,0ZM85.85,85.45A47.21,47.21,0,0,1,52.34,99.32h-.17a47.63,47.63,0,0,1,.1-95.25h.17A47.59,47.59,0,0,1,85.85,85.45Z" fill="#315FAA"/><path d="M46.34,29.6H63.58c2,0,2.77.79,2.78,2.76,0,1.51,0,1.51,1.47,1.51,2.34,0,4.68,0,7,0a2.79,2.79,0,0,1,2.84,1.77c1.8,3.68,3.68,7.33,5.5,11a35.18,35.18,0,0,0,4,5.58,4.71,4.71,0,0,1,1.09,3.11c0,4.15,0,8.3,0,12.45,0,2-.74,2.68-2.71,2.68-1.6,0-3.19,0-4.79,0a1,1,0,0,0-1.15.76,8.52,8.52,0,0,1-16,0,1,1,0,0,0-1.16-.74q-5.49,0-11,0c-.7,0-.95.24-1.2.85a8.54,8.54,0,0,1-16.06-.17.85.85,0,0,0-1-.67c-1.56,0-3.13,0-4.69,0a2.14,2.14,0,1,1,0-4.27c1.53,0,3.06,0,4.58,0a.9.9,0,0,0,1.06-.71,8.54,8.54,0,0,1,16.13-.19c.25.68.51.92,1.25.91,3.61,0,7.23,0,10.85,0a1,1,0,0,0,1.14-.77,8.53,8.53,0,0,1,16.16,0c.21.58.47.78,1.06.72,1-.1,2.44.45,3-.22S84,64,84,63c0-2.34,0-4.68,0-7a2.16,2.16,0,0,0-.54-1.54c-.72-.87-1.43-1.76-2.08-2.69A1.51,1.51,0,0,0,80,51.06c-5.07,0-10.14,0-15.22,0-2,0-2.7-.71-2.71-2.68,0-4.37,0-8.73,0-13.09,0-1.67.24-1.43-1.49-1.43H28.75c-1.53,0-2.41-.74-2.44-2a2.1,2.1,0,0,1,2.37-2.24Zm26,17.19c1.77,0,3.54,0,5.31,0,.71,0,.77-.18.47-.77-1.24-2.42-2.46-4.84-3.66-7.28a.92.92,0,0,0-1-.61c-2.12,0-4.25,0-6.37,0-.6,0-.79.16-.78.76q.06,3.57,0,7.12c0,.61.19.78.78.77C68.86,46.76,70.59,46.79,72.33,46.79ZM71.57,64a4.26,4.26,0,0,0-4.23,4.26,4.35,4.35,0,0,0,4.33,4.31,4.41,4.41,0,0,0,4.26-4.3A4.32,4.32,0,0,0,71.57,64ZM38,68.22a4.28,4.28,0,0,0,4.28,4.33,4.39,4.39,0,0,0,4.25-4.29A4.28,4.28,0,0,0,42.26,64,4.18,4.18,0,0,0,38,68.22Z" fill="#315FAA"/><path d="M35,38.41h8.83a2.22,2.22,0,0,1,2.35,1.44A2.16,2.16,0,0,1,44,42.72c-1.17.05-2.34,0-3.51,0-4.76,0-9.51,0-14.26,0-1.84,0-2.91-1.32-2.41-2.87.31-1,1.08-1.44,2.44-1.45Z" fill="#315FAA"/><path d="M31.45,51.13H22.73c-1.58,0-2.52-.8-2.55-2.09s1-2.2,2.55-2.2q8.77,0,17.55,0a2.21,2.21,0,0,1,2.45,1.73,2.11,2.11,0,0,1-2.24,2.55C37.47,51.15,34.46,51.13,31.45,51.13Z" fill="#315FAA"/><path d="M30.82,55.3c1.56,0,3.12,0,4.68,0a2.11,2.11,0,0,1,2.33,2.07,2.14,2.14,0,0,1-2.33,2.2c-3.16,0-6.31,0-9.47,0a2.14,2.14,0,1,1,0-4.27C27.62,55.28,29.22,55.3,30.82,55.3Z" fill="#315FAA"/><circle cx="14.58" cy="17.19" r="14.58" fill="#52A3D8"/><text transform="translate(8.29 23.04)" font-size="19.99" fill="#fff" font-family="Metropolis-Black, Metropolis" font-weight="800" letter-spacing="0.05em">5</text></svg>