<svg xmlns="http://www.w3.org/2000/svg" width="104" height="102.609" viewBox="0 0 104 102.609">
  <g id="Group_297" data-name="Group 297" transform="translate(-1440.5 -1365.059)">
    <g id="Group_202" data-name="Group 202">
      <g id="Group_200" data-name="Group 200">
        <circle id="Ellipse_25" data-name="Ellipse 25" cx="48.857" cy="48.857" r="48.857" transform="translate(1444.339 1367.506)" fill="#fff"/>
        <path id="Path_731" data-name="Path 731" d="M1493.315,1365.059h-.094a51.3,51.3,0,0,0-.142,102.609h.094a51.3,51.3,0,0,0,.142-102.609Zm33.2,84.83a46.9,46.9,0,0,1-33.277,13.772h-.171a47.3,47.3,0,0,1,.1-94.6h.169a47.263,47.263,0,0,1,33.18,80.824Z" fill="#007ab7"/>
        <path id="Path_732" data-name="Path 732" d="M1511.632,1415.973c0-2.85.063-5.7-.012-8.549a18.463,18.463,0,0,0-36.661-2.146,21.418,21.418,0,0,0-.225,3.607c-.016,5.421-.006,10.841-.007,16.262,0,1.541-.182,1.786-1.683,1.921-.734.067-.455.557-.424.872a11.977,11.977,0,0,0,3.336,7.367c2.822,2.919,6.342,3.907,10.293,3.722.388-.018.426-.241.527-.5a4.883,4.883,0,0,1,4.969-3.414,18.007,18.007,0,0,1,4.436.18,4.909,4.909,0,0,1-1.209,9.666,18.232,18.232,0,0,1-4.894-.2,4.48,4.48,0,0,1-3.2-2.964.916.916,0,0,0-1.116-.738,14.034,14.034,0,0,1-9.657-2.83,13.873,13.873,0,0,1-5.583-10.45c-.041-.571-.2-.687-.739-.741a6.581,6.581,0,0,1-6.232-6.329,37.378,37.378,0,0,1,.047-6.5,6.639,6.639,0,0,1,6.295-5.855c.862-.032,2.012.283,2.505-.154.474-.42.261-1.608.362-2.457a20.594,20.594,0,0,1,40.651-1.39,17.651,17.651,0,0,1,.347,3.226c.012.694.249.8.856.779a10.5,10.5,0,0,1,3.325.212,6.6,6.6,0,0,1,4.857,5.808,35.538,35.538,0,0,1,0,6.588,6.619,6.619,0,0,1-6.557,6.1c-.99.038-1.982.02-2.973.011-1.219-.01-1.606-.394-1.61-1.629-.009-3.159,0-6.319,0-9.478Zm2.166,1.666c0,2.227.009,4.455-.007,6.682,0,.442.061.69.593.65.739-.055,1.486,0,2.224-.065a4.394,4.394,0,0,0,4.09-3.971,38.182,38.182,0,0,0,0-6.487,4.454,4.454,0,0,0-3.561-3.893,17.793,17.793,0,0,0-2.582-.167c-.6-.047-.782.137-.771.754C1513.822,1413.307,1513.8,1415.473,1513.8,1417.639Zm-41.208.1v-5.011c0-2.657,0-2.657-2.7-2.3a4.623,4.623,0,0,0-4.266,4.571c-.064,1.265.056,2.541-.035,3.8-.3,4.131,1.673,6.516,6.316,6.185.6-.043.7-.216.693-.751C1472.574,1422.068,1472.59,1419.9,1472.59,1417.737Zm20.57,25.15c.588,0,1.177.017,1.765,0a2.833,2.833,0,0,0,.114-5.664c-1.236-.054-2.479-.057-3.715,0a2.831,2.831,0,0,0,.071,5.659C1491.982,1442.908,1492.572,1442.885,1493.16,1442.887Z" fill="#007ab7" stroke="#007ab7" stroke-miterlimit="10" stroke-width="2"/>
      </g>
      <g id="Group_201" data-name="Group 201">
        <circle id="Ellipse_26" data-name="Ellipse 26" cx="14.657" cy="14.657" r="14.657" transform="translate(1440.5 1368.55)" fill="#00aeef"/>
        <text id="_1" data-name="1" transform="translate(1448.835 1389.081)" fill="#fff" font-size="20.101" font-family="Roboto-Black, Roboto" font-weight="800" letter-spacing="0.05em"><tspan x="0" y="0">1</tspan></text>
      </g>
    </g>
  </g>
</svg>
