<svg id="Layer_1" data-name="Layer 1" xmlns="http://www.w3.org/2000/svg" viewBox="0 0 104 102.72"><title>CentriAir3</title><path d="M52.76,0h-.09a51.36,51.36,0,0,0-.15,102.72h.1A51.36,51.36,0,0,0,52.76,0ZM86,84.91A46.91,46.91,0,0,1,52.68,98.7h-.17A47.3,47.3,0,0,1,19.3,17.81,47,47,0,0,1,52.6,4h.17A47.3,47.3,0,0,1,86,84.91Z" fill="#007ab7"/><path d="M85.1,76.39,74.56,65.86a3,3,0,0,1-.63-4A26.76,26.76,0,0,0,77.77,49v-.42c0-.27,0-.53,0-.8a26.93,26.93,0,1,0-53.45,5A26,26,0,0,0,33.84,69c9.32,7.49,21.46,8.13,31.68,1.67a3.2,3.2,0,0,1,4.27.47c1.71,1.77,3.46,3.51,5.2,5.25l1.86,1.85c.74.73,1.46,1.47,2.19,2.2l.39.39.22.22c.1.12.24.24.39.4l.41.41,0,0a3.94,3.94,0,0,0,2.56,1,3.31,3.31,0,0,0,.77-.09,3.35,3.35,0,0,0,2.44-2.25C86.63,79.39,86.79,78.08,85.1,76.39ZM50.77,25.57v.5a22,22,0,1,1-15.56,6.48,21.9,21.9,0,0,1,15.56-6.48Z" fill="#007ab7"/><path d="M36.8,48.56a1.86,1.86,0,0,0,.91.25,2.26,2.26,0,0,0,1.6-.78l2.29-2.28,8.78-8.81q5.35,5.4,10.74,10.76l.4.4a2,2,0,0,0,2.91.12A2,2,0,0,0,65,46.86a2.21,2.21,0,0,0-.69-1.56L51.91,32.89a2,2,0,0,0-3,0c-.45.44-.89.88-1.33,1.33l-11,11a2.16,2.16,0,0,0-.76,1.6h0A1.92,1.92,0,0,0,36.8,48.56Z" fill="#007ab7"/><path d="M62.08,51.75a1.93,1.93,0,0,0-1.22-1.83,1.89,1.89,0,0,0-1.82.16,2.09,2.09,0,0,0-.9,1.74v5.7a1.89,1.89,0,0,1-2,2H44.59a1.89,1.89,0,0,1-2-2V52a2,2,0,0,0-1.95-2.25,1.83,1.83,0,0,0-1.37.52,2.41,2.41,0,0,0-.63,1.76V57.5a5.82,5.82,0,0,0,5.94,6H56.3A5.82,5.82,0,0,0,62.06,58c.06-1.52,0-3,0-4.53C62.09,52.88,62.08,52.31,62.08,51.75Z" fill="#007ab7"/><circle cx="14.59" cy="17.92" r="14.59" fill="#00aeef"/><text transform="translate(8.3 23.76)" font-size="20.01" fill="#fff" font-family="Metropolis-Black, Metropolis" font-weight="800" letter-spacing="0.05em">3</text></svg>