<svg id="Layer_1" data-name="Layer 1" xmlns="http://www.w3.org/2000/svg" viewBox="0 0 72 72"><title>CentriAir_MU</title><circle cx="35.77" cy="36" r="33.66" fill="#fff"/><path d="M36.08,0H36a36,36,0,0,0-.1,72H36a36,36,0,0,0,.1-72ZM59.36,59.51A32.89,32.89,0,0,1,36,69.17h-.12A33.14,33.14,0,0,1,12.64,12.49,32.89,32.89,0,0,1,36,2.83h.11A33.14,33.14,0,0,1,59.36,59.51Z" fill="#007ab7"/><path d="M31.85,20.61h12c1.38,0,1.93.54,1.93,1.92,0,1.05,0,1.05,1,1.05,1.63,0,3.26,0,4.89,0a2,2,0,0,1,2,1.24c1.25,2.56,2.56,5.1,3.83,7.65a23.47,23.47,0,0,0,2.81,3.89,3.33,3.33,0,0,1,.75,2.17c0,2.89,0,5.78,0,8.67,0,1.35-.52,1.86-1.89,1.86-1.11,0-2.22,0-3.33,0a.69.69,0,0,0-.81.53,5.94,5.94,0,0,1-11.17,0,.7.7,0,0,0-.81-.51c-2.54,0-5.09,0-7.63,0a.75.75,0,0,0-.83.59,6,6,0,0,1-11.19-.12.59.59,0,0,0-.68-.46c-1.09,0-2.18,0-3.26,0a1.49,1.49,0,1,1,0-3c1.06,0,2.12,0,3.18,0a.63.63,0,0,0,.74-.5,6,6,0,0,1,11.24-.13c.17.47.35.64.86.63,2.52,0,5,0,7.56,0a.71.71,0,0,0,.8-.54,5.94,5.94,0,0,1,11.25,0c.15.4.33.54.74.5.73-.07,1.7.32,2.12-.15s.12-1.36.12-2.08c0-1.63,0-3.26,0-4.89a1.49,1.49,0,0,0-.37-1.07c-.5-.61-1-1.23-1.45-1.87a1.05,1.05,0,0,0-1-.47c-3.53,0-7.06,0-10.6,0-1.38,0-1.88-.49-1.88-1.86,0-3,0-6.08,0-9.12,0-1.17.17-1-1-1H19.59c-1.07,0-1.67-.52-1.7-1.42a1.46,1.46,0,0,1,1.65-1.55Zm18.09,12c1.24,0,2.47,0,3.7,0,.49,0,.54-.12.33-.53Q52.68,29.53,51.42,27a.63.63,0,0,0-.67-.42q-2.22,0-4.44,0c-.41,0-.54.11-.54.53,0,1.65,0,3.31,0,5,0,.42.13.54.55.53C47.52,32.57,48.73,32.58,49.94,32.58Zm-.53,12a3,3,0,0,0-2.94,3,3,3,0,0,0,3,3,3.06,3.06,0,0,0,3-3A3,3,0,0,0,49.41,44.56ZM26.07,47.51a3,3,0,0,0,3,3,3.05,3.05,0,0,0,3-3,3,3,0,0,0-3-3A2.9,2.9,0,0,0,26.07,47.51Z" fill="#007ab7"/><path d="M23.93,26.75h6.15a1.54,1.54,0,0,1,1.64,1,1.5,1.5,0,0,1-1.51,2c-.82,0-1.63,0-2.45,0H17.83c-1.28,0-2-.92-1.68-2,.22-.68.76-1,1.71-1C19.88,26.74,21.91,26.75,23.93,26.75Z" fill="#007ab7"/><path d="M21.47,35.61H15.4c-1.1,0-1.76-.56-1.78-1.46s.68-1.53,1.78-1.53H27.63a1.54,1.54,0,0,1,1.7,1.21,1.46,1.46,0,0,1-1.56,1.77C25.67,35.62,23.57,35.61,21.47,35.61Z" fill="#007ab7"/><path d="M21,38.51c1.09,0,2.18,0,3.26,0A1.46,1.46,0,0,1,25.91,40a1.49,1.49,0,0,1-1.62,1.54H17.7A1.52,1.52,0,0,1,16.06,40a1.5,1.5,0,0,1,1.64-1.44C18.81,38.5,19.92,38.51,21,38.51Z" fill="#007ab7"/></svg>