<svg class="h-full w-full" id="Layer_1" data-name="Layer 1" xmlns="http://www.w3.org/2000/svg" viewBox="0 0 40 40"><title>CentriAir_MU</title><path d="M28.59,16.13a13,13,0,0,1-1.46,5.7,47,47,0,0,1-4.21,6.75c-.74,1-1.48,2.09-2.21,3.14-.45.65-1,.65-1.41,0-1.68-2.45-3.39-4.87-5-7.36a19.47,19.47,0,0,1-2.56-5.62,8.6,8.6,0,1,1,16.73-3.93C28.54,15.32,28.56,15.85,28.59,16.13ZM20,30.23c.88-1.24,1.72-2.41,2.54-3.58a35.37,35.37,0,0,0,3.54-5.95,9.92,9.92,0,0,0,1-5.08A7.13,7.13,0,0,0,16.88,10a7,7,0,0,0-4,6.5,8.57,8.57,0,0,0,1,3.9,47.12,47.12,0,0,0,2.35,4.3C17.35,26.53,18.67,28.33,20,30.23Z" fill="#315FAA"/><path d="M24.28,16.38A4.28,4.28,0,1,1,20,12.07,4.29,4.29,0,0,1,24.28,16.38Zm-7.13-.06a2.86,2.86,0,1,0,2.9-2.81A2.86,2.86,0,0,0,17.15,16.32Z" fill="#315FAA"/><circle cx="20" cy="20" r="19" fill="none" stroke="#315FAA" stroke-miterlimit="10" stroke-width="2"/></svg>