<svg id="Layer_1" data-name="Layer 1" xmlns="http://www.w3.org/2000/svg" viewBox="0 0 40 40"><title>CentriAir_MU</title><path d="M23.79,27.79A7,7,0,0,1,20.54,27a15.38,15.38,0,0,1-8-8.66,5.37,5.37,0,0,1-.28-3.07,3.61,3.61,0,0,1,.9-1.69q.41-.44.84-.84a1.77,1.77,0,0,1,2.49,0q.87.84,1.71,1.71a1.76,1.76,0,0,1,0,2.51,8.22,8.22,0,0,1-.66.66c-.16.14-.19.25,0,.45A15.91,15.91,0,0,0,22,22.49c.17.12.29.16.45,0a9.51,9.51,0,0,1,.71-.71,1.76,1.76,0,0,1,2.43,0c.61.58,1.2,1.18,1.79,1.8a1.63,1.63,0,0,1,.23,2.05A4.83,4.83,0,0,1,25,27.66,4.27,4.27,0,0,1,23.79,27.79Zm.12-1.19.43-.05a3.5,3.5,0,0,0,2-1.34.59.59,0,0,0,0-.94l-1.55-1.55a.6.6,0,0,0-1,0c-.35.34-.69.69-1,1a.63.63,0,0,1-.95.11,16.54,16.54,0,0,1-5.7-5.7.63.63,0,0,1,.1-.93c.35-.35.71-.69,1.06-1a.6.6,0,0,0,0-.94c-.52-.54-1-1.07-1.58-1.59a.6.6,0,0,0-1,0l-.61.59a2.57,2.57,0,0,0-.78,2.06,5.33,5.33,0,0,0,.37,1.77,14.37,14.37,0,0,0,7.79,8A6.4,6.4,0,0,0,23.91,26.6Z" fill="#007ab7"/><circle cx="20" cy="20" r="19" fill="none" stroke="#007ab7" stroke-miterlimit="10" stroke-width="2"/></svg>