<svg id="Layer_1" data-name="Layer 1" xmlns="http://www.w3.org/2000/svg" viewBox="0 0 34 34"><title>CentriAir_MU</title><circle cx="17" cy="17" r="17" fill="#315FAA"/><path d="M18.16,8a8.8,8.8,0,0,0-8.82,8.38c0,.13,0,.26,0,.39a8.74,8.74,0,0,0,1.26,4.53L9,26l4.89-1.55a8.94,8.94,0,0,0,4.27,1.09A8.8,8.8,0,0,0,27,16.77v-.23A8.8,8.8,0,0,0,18.16,8Zm0,16.14a7.39,7.39,0,0,1-4.08-1.22l-2.86.91.93-2.74a7.31,7.31,0,0,1-1.42-4.32c0-.24,0-.48,0-.72a7.43,7.43,0,0,1,14.8.14,5.52,5.52,0,0,1,0,.58A7.41,7.41,0,0,1,18.16,24.14Z" fill="#fff"/><path d="M22.21,18.54c-.22-.11-1.28-.63-1.48-.7s-.34-.11-.49.11-.56.7-.68.84-.25.16-.47.05a5.83,5.83,0,0,1-1.75-1.07,6.27,6.27,0,0,1-1.2-1.48c-.12-.22,0-.33.1-.44l.32-.38.08-.1a2,2,0,0,0,.14-.26.4.4,0,0,0,0-.37l-.67-1.6c-.18-.43-.36-.36-.49-.36l-.41,0a.82.82,0,0,0-.58.27,2.42,2.42,0,0,0-.76,1.8,3,3,0,0,0,.11.73,4.92,4.92,0,0,0,.78,1.49,9,9,0,0,0,3.7,3.25c2.2.85,2.2.57,2.6.53a2.16,2.16,0,0,0,1.46-1,1.84,1.84,0,0,0,.13-1C22.57,18.7,22.43,18.65,22.21,18.54Z" fill="#fff"/></svg>