<svg id="Layer_1" data-name="Layer 1" xmlns="http://www.w3.org/2000/svg" viewBox="0 0 102.72 102.72"><title>CentriAir_MU</title><circle cx="51.03" cy="51.36" r="48.03" fill="#fff"/><path d="M51.48,0h-.09a51.36,51.36,0,0,0-.15,102.72h.1A51.36,51.36,0,0,0,51.48,0ZM84.7,84.91A46.91,46.91,0,0,1,51.4,98.7h-.17A47.34,47.34,0,0,1,51.33,4h.16A47.3,47.3,0,0,1,84.7,84.91Z" fill="#315FAA"/><path d="M75.93,37.17a4.9,4.9,0,0,1-1.1-4.24c.82-4.62.15-5.81-4.21-7.48a5.41,5.41,0,0,1-3.35-3.38c-1.7-4.33-2.66-4.87-7.32-4.15a5.14,5.14,0,0,1-4.43-1.15c-3.68-3-4.88-3-8.56-.05a4.68,4.68,0,0,1-4.46,1.19,7.94,7.94,0,0,0-1.41-.2l-.33,0c-2.89-.05-4.29.73-4.95,2.83a8.08,8.08,0,0,1-5.59,5.65c-2.36.8-3.28,2.46-2.81,5.07.39,2.11.52,4.83-1.88,7.14-1.28,1.23-2,3.31-1,4.66a13.84,13.84,0,0,1,2.87,10.61c-.23,2.28,1.95,3.15,4.06,4l.14,0A5.55,5.55,0,0,1,35,60.55,5.56,5.56,0,0,1,34.67,65Q31.36,72.77,28,80.53l-.07.16c-.44,1-.67,1.65,0,2.36s1.42.57,2.56.24A14.87,14.87,0,0,0,32,82.72c1.16-.49,2.35-1,3.38-.7,1.2.35,1.69,1.61,2.16,2.83a9.44,9.44,0,0,0,.71,1.57l.21.36c.49.83.84,1.34,1.73,1.3s1.32-.67,1.75-1.69l3.21-7.57q1.77-4.14,3.52-8.28l.09-.22a2.38,2.38,0,0,1,2.34-1.88h.18c1.58,0,2,1,2.32,1.86l.13.31,2.34,5.56c1.37,3.27,2.74,6.54,4.14,9.8.06.13.11.27.17.4.42,1.06.74,1.72,1.82,1.72h0c1,0,1.32-.59,1.79-1.53l.21-.4c2.44-4.49,2.64-4.57,7.29-3l.27.09c1.18.39,1.93.6,2.65-.21s.4-1.4-.06-2.44l-.15-.33c-1.41-3.34-2.85-6.68-4.29-10l-2.19-5.1c-.81-1.87-1-3.3-.47-4.51s1.63-2.17,3.58-3c4.1-1.72,4.81-3,4-7.24A5,5,0,0,1,76,45.93C79,42.07,79,41,75.93,37.17ZM46.35,68c-1.37,3.26-2.76,6.5-4.16,9.75l-1.68,3.91a.4.4,0,0,1-.36.24.31.31,0,0,1-.13,0l-.15,0a.72.72,0,0,1-.46-.27c-2.07-3.25-2.07-3.25-5.95-2.62A1.26,1.26,0,0,1,33,79H33a.41.41,0,0,1-.36-.15l0,0a1.19,1.19,0,0,1-.27-.28.38.38,0,0,1,0-.43l.06-.08a59.19,59.19,0,0,0,3.42-7.53c.43-1.07.85-2.14,1.31-3.19a2.61,2.61,0,0,1,3-1.88,14.52,14.52,0,0,0,2.86-.23l.88-.12a2.51,2.51,0,0,1,2.41.78A2.15,2.15,0,0,1,46.35,68ZM68.92,76c.34.78.69,1.55,1,2.33a.4.4,0,0,1-.09.43.38.38,0,0,1-.43.07c-1.59-.77-2.85-.93-3.87-.49s-2,1.79-2.69,4a.4.4,0,0,1-.35.27h0a.38.38,0,0,1-.35-.23l-1.88-4.42c-1.5-3.51-2.91-6.81-4.29-10.12a1.93,1.93,0,0,1-.08-1.6,2.61,2.61,0,0,1,1.85-1.09L58,65a1.67,1.67,0,0,1,1,.16,1.23,1.23,0,0,0,.53.13c4.61-1,6.07,2.14,7.18,5.4C67.37,72.46,68.16,74.23,68.92,76Zm4.89-32.46a7.16,7.16,0,0,0-2,8,2.21,2.21,0,0,1,0,1.78,2.28,2.28,0,0,1-1.54,1c-3.46.9-5.48,2.91-6.2,6.15a2.23,2.23,0,0,1-1,1.57,2.45,2.45,0,0,1-2,0,7.35,7.35,0,0,0-8,2.16,2.5,2.5,0,0,1-1.77.94h0a2.25,2.25,0,0,1-1.64-.84,7.87,7.87,0,0,0-8.67-2.13,1.82,1.82,0,0,1-1.48,0,2.25,2.25,0,0,1-.94-1.49,8.23,8.23,0,0,0-6.32-6.36,1.88,1.88,0,0,1-1.65-2.4s0,0,0,0c1.27-3.12.55-5.92-2.27-8.82A2,2,0,0,1,28.41,40,7.85,7.85,0,0,0,30.6,31.5a2.14,2.14,0,0,1,.11-1.72,2.39,2.39,0,0,1,1.63-1.05,7.63,7.63,0,0,0,6-6,2.32,2.32,0,0,1,1.07-1.59A2.15,2.15,0,0,1,41.17,21c3.18,1,6,.23,8.61-2.39a1.81,1.81,0,0,1,2.87,0C55.32,21.28,58,22,61,21A2.34,2.34,0,0,1,63,21.1a2.65,2.65,0,0,1,1.17,1.82,7.17,7.17,0,0,0,5.72,5.72,2.7,2.7,0,0,1,1.86,1.23A2.52,2.52,0,0,1,71.76,32c-1,2.8-.33,5.29,2,7.63a3,3,0,0,1,1.07,2.07A2.64,2.64,0,0,1,73.81,43.49Z" fill="#315FAA" stroke="#315FAA" stroke-miterlimit="10"/><path d="M63.41,40.32a2,2,0,0,0,.42-2,1.33,1.33,0,0,0-1.25-.71c-5.29-.15-8.44-2.4-9.93-7.07a1.46,1.46,0,0,0-1.17-1.16,2.1,2.1,0,0,0-1.87,1.24,31.9,31.9,0,0,0-1.76,3.6c-.54,1.29-1.3,2.66-3.43,2.66h-.15a14.62,14.62,0,0,0-3.5.49l-.86.19a1.83,1.83,0,0,0-1.46,1A1.74,1.74,0,0,0,39,40.24a20,20,0,0,0,2.68,2.63c1.38,1.1,2.67,2.55,1.78,5a12.11,12.11,0,0,0-.5,2.63c-.05.4-.1.79-.16,1.16a2.14,2.14,0,0,0,.77,2.06,1.93,1.93,0,0,0,2-.44c4.07-2.91,7.67-2.9,11.33,0a1.65,1.65,0,0,0,2.21.15,1.82,1.82,0,0,0,.5-2.22C58,46.6,59,43.24,62.7,41A2.9,2.9,0,0,0,63.41,40.32Zm-5.08.34c-2.87,2.14-3.67,4.47-2.61,7.56a.37.37,0,0,1-.12.43.39.39,0,0,1-.45,0c-3-1.94-5.45-1.88-7.83.21a.43.43,0,0,1-.26.09.46.46,0,0,1-.2,0,.4.4,0,0,1-.17-.43c.84-3.3.71-5.85-2.64-7.53a.39.39,0,0,1-.21-.42.37.37,0,0,1,.36-.3c3.85-.2,5.82-1.62,6.58-4.76a.37.37,0,0,1,.36-.29h0a.39.39,0,0,1,.37.26C52.73,39,54.69,40.36,58.05,40a.38.38,0,0,1,.4.24A.37.37,0,0,1,58.33,40.66Z" fill="#315FAA"/></svg>