<svg id="Layer_1" data-name="Layer 1" xmlns="http://www.w3.org/2000/svg" viewBox="0 0 72.05 72"><title>CentriAir_MU</title><path d="M69.41,44.12a1.79,1.79,0,0,0,2.06-1.75,35.75,35.75,0,0,0,.17-11.76c-.41-2.63-.51-2.7-3.14-2.68h0a2.42,2.42,0,0,1-2.72-2,10.47,10.47,0,0,0-1.26-3.1c-1.16-1.82-.91-3.29.81-4.63a1.65,1.65,0,0,0,.5-2.5,36.59,36.59,0,0,0-9.52-9.5,1.9,1.9,0,0,0-1.33-.38.78.78,0,0,0-.53.35c-2,3-4.42,2-6.68.7a4.55,4.55,0,0,0-.59-.25L47,6.58c-2.75-1-2.83-1.1-2.85-4,0-1.26-.43-1.78-1.6-2A35.25,35.25,0,0,0,29.25.66c-.56.12-1.48.45-1.31,1.47.57,3.43-1.81,4.37-3.65,4.78A4.07,4.07,0,0,0,23,7.5c-1.85,1.26-3.41,1-4.78-.8a1.64,1.64,0,0,0-2.52-.42,36.8,36.8,0,0,0-9.39,9.4c-.35.52-.82,1.48.07,2.11,2.79,2,1.89,4.22.8,6a5.07,5.07,0,0,0-.43.94l-.1.27c-1.09,2.81-1.21,2.89-4.08,2.94-1.16,0-1.69.38-1.87,1.32a34.64,34.64,0,0,0,0,13.61c.06.33.36,1.41,1.33,1.23,3.42-.66,4.43,1.57,5,3.85a3.81,3.81,0,0,0,.54,1.17c1.24,1.87,1,3.43-.85,4.78a1.61,1.61,0,0,0-.37,2.5,37.12,37.12,0,0,0,9.4,9.39c.33.22,1.44.88,2.13-.1a3.64,3.64,0,0,1,3-1.83,5.38,5.38,0,0,1,2.79,1,4,4,0,0,0,1.33.56c2.32.42,3.29,1.73,3,4-.16,1.16.35,1.77,1.71,2a37.56,37.56,0,0,0,12.28.16,2.69,2.69,0,0,0,1.89-.86,2.42,2.42,0,0,0,.31-1.84,2.61,2.61,0,0,1,2.1-3.23,19.12,19.12,0,0,0,3.59-1.49,2.51,2.51,0,0,1,3.49.6l.16.19a2.4,2.4,0,0,0,2,1.16l.13,0a1.92,1.92,0,0,0,.55-.22,35.17,35.17,0,0,0,9.74-9.75,1.25,1.25,0,0,0-.15-1.82c-2.81-1.92-2-4.14-.74-6.24a3.92,3.92,0,0,0,.31-.75c0-.11.07-.22.11-.32,1-2.73,1.16-2.85,3.86-2.85A.28.28,0,0,1,69.41,44.12ZM68.81,40c-.12.75-.34,1.14-1.25,1.21A5,5,0,0,0,63,44.85c-.53,1.46-1.14,2.85-1.72,4.14a4.89,4.89,0,0,0,.61,5.54l.15.17a1,1,0,0,1,.13,1.57,35.78,35.78,0,0,1-5.9,5.86,4.85,4.85,0,0,1-.41.28l-.38.23-.94-.77A4.87,4.87,0,0,0,49,61.28a39.5,39.5,0,0,1-4,1.65,5.07,5.07,0,0,0-3.84,4.62c-.08.86-.36,1.15-1.19,1.26a33,33,0,0,1-4,.25,32.28,32.28,0,0,1-4-.26c-.92-.11-1.13-.53-1.19-1.27-.16-2.28-1.42-3.79-3.83-4.61a42.88,42.88,0,0,1-4-1.66,4.75,4.75,0,0,0-5.5.64,1.33,1.33,0,0,1-2.05,0,38,38,0,0,1-5.28-5.26,1.4,1.4,0,0,1,0-2.17,4.7,4.7,0,0,0,.58-5.5,43.53,43.53,0,0,1-1.79-4.31A4.74,4.74,0,0,0,4.61,41.2c-1.1-.1-1.36-.6-1.45-1.43a36,36,0,0,1,0-7.63c.08-.76.33-1.23,1.35-1.32A4.82,4.82,0,0,0,9,27.25a35.36,35.36,0,0,1,1.46-3.53l.35-.77a4.74,4.74,0,0,0-.58-5.37,1.41,1.41,0,0,1-.06-2.17A38.54,38.54,0,0,1,15.53,10a1.25,1.25,0,0,1,1.92,0c1.65,1.47,3.55,1.66,5.8.58a36.83,36.83,0,0,1,3.83-1.59,4.89,4.89,0,0,0,3.73-4.49c.08-.93.39-1.26,1.3-1.37a32.83,32.83,0,0,1,7.8,0c1,.12,1.19.51,1.28,1.36A5,5,0,0,0,45,9.05c1.22.41,2.41.94,3.56,1.46l.58.26a4.67,4.67,0,0,0,5.35-.61,1.43,1.43,0,0,1,2.2,0,40.31,40.31,0,0,1,5.26,5.28c.51.63.84,1.17.05,2-1.46,1.59-1.66,3.43-.63,5.64.73,1.58,1.32,3,1.79,4.3a4.74,4.74,0,0,0,4.21,3.4c1.13.12,1.39.59,1.52,1.53A25.34,25.34,0,0,1,68.81,40Z" fill="#315FAA"/><path d="M52.94,19.11a23.83,23.83,0,0,0-17-7h0a23.92,23.92,0,0,0,.12,47.84h0A23.89,23.89,0,0,0,52.94,19.11ZM36,57.62a21.5,21.5,0,1,1,21.5-21.5A21.5,21.5,0,0,1,36,57.62Z" fill="#315FAA"/><path d="M36,53.29H31.1A1.94,1.94,0,0,1,30,53a12,12,0,0,1-5.92-11.69,11.75,11.75,0,0,1,7.43-9.81A.66.66,0,0,0,32,30.8c0-2.53,0-5.06,0-7.59,0-.34,0-.54-.43-.66a1.26,1.26,0,0,1-.9-1.44A1.3,1.3,0,0,1,32,20c2.68,0,5.37,0,8.05,0a1.29,1.29,0,0,1,1.28,1.13,1.26,1.26,0,0,1-.92,1.43c-.35.11-.41.27-.4.6,0,2.53,0,5.06,0,7.59a.72.72,0,0,0,.56.8,11.77,11.77,0,0,1,7.28,9.07A12,12,0,0,1,42,53a2.28,2.28,0,0,1-1.14.29C39.25,53.28,37.61,53.29,36,53.29Zm0-2.66h4.39a1.14,1.14,0,0,0,.69-.16,9.32,9.32,0,0,0,4.27-8.36c0-.44-.16-.42-.53-.32a12.2,12.2,0,0,1-5.5.58,17.1,17.1,0,0,1-4.09-1.3,10.34,10.34,0,0,0-7.58-.29A1.18,1.18,0,0,0,26.69,42a9.33,9.33,0,0,0,4.1,8.32,1.47,1.47,0,0,0,.93.27C33.14,50.62,34.56,50.63,36,50.63ZM28,37.9A16,16,0,0,1,31,37.45a13.53,13.53,0,0,1,5.75,1.4,10,10,0,0,0,7.32.37c.45-.15.5-.27.29-.67a9.29,9.29,0,0,0-5.77-4.87c-1-.3-1.28-.65-1.28-1.72V24.7c0-.66.23-1.56-.11-1.92s-1.3-.06-2-.14-.6.17-.59.63c0,2.88,0,5.77,0,8.65,0,1.12-.25,1.44-1.31,1.77A9.4,9.4,0,0,0,28,37.9Z" fill="#315FAA"/></svg>