<svg id="Layer_1" data-name="Layer 1" xmlns="http://www.w3.org/2000/svg" viewBox="0 0 104 102.61"><title>CentriAir_MU</title><circle cx="52.7" cy="51.3" r="48.86" fill="#fff"/><path d="M52.81,0h-.09a51.31,51.31,0,0,0-.14,102.61h.09A51.31,51.31,0,0,0,52.81,0ZM86,84.83A46.9,46.9,0,0,1,52.73,98.6h-.17A47.3,47.3,0,0,1,52.66,4h.17A47.26,47.26,0,0,1,86,84.83Z" fill="#315FAA"/><path d="M71.13,50.91c0-2.85.07-5.7,0-8.54a18.46,18.46,0,0,0-36.66-2.15,21.82,21.82,0,0,0-.23,3.61c0,5.42,0,10.84,0,16.26,0,1.54-.19,1.78-1.69,1.92-.73.07-.45.56-.42.87a12,12,0,0,0,3.34,7.37c2.82,2.92,6.34,3.9,10.29,3.72.39,0,.43-.24.53-.5a4.86,4.86,0,0,1,5-3.41,17.77,17.77,0,0,1,4.43.18,4.9,4.9,0,0,1-1.21,9.66,18.21,18.21,0,0,1-4.89-.2,4.47,4.47,0,0,1-3.2-3A.91.91,0,0,0,45.27,76a14,14,0,0,1-9.66-2.83A13.83,13.83,0,0,1,30,62.72c0-.57-.21-.69-.74-.74a6.59,6.59,0,0,1-6.24-6.33,38,38,0,0,1,.05-6.49,6.65,6.65,0,0,1,6.3-5.86c.86,0,2,.28,2.5-.15s.26-1.61.36-2.46A20.6,20.6,0,0,1,72.92,39.3a18.44,18.44,0,0,1,.34,3.23c0,.69.25.79.86.77a10.59,10.59,0,0,1,3.32.22,6.58,6.58,0,0,1,4.86,5.8,35.38,35.38,0,0,1,0,6.59A6.61,6.61,0,0,1,75.75,62c-1,0-2,0-3,0-1.21,0-1.6-.39-1.61-1.63V50.91Zm2.17,1.67c0,2.23,0,4.46,0,6.68,0,.44.06.69.59.65.74,0,1.49,0,2.23-.06a4.41,4.41,0,0,0,4.09-4,39.07,39.07,0,0,0,0-6.49,4.46,4.46,0,0,0-3.56-3.89,17.42,17.42,0,0,0-2.59-.17c-.6,0-.78.14-.77.75C73.32,48.25,73.3,50.41,73.3,52.58Zm-41.21.1v-5c0-2.66,0-2.66-2.7-2.3a4.61,4.61,0,0,0-4.26,4.57c-.07,1.26.05,2.54,0,3.8-.3,4.13,1.68,6.52,6.32,6.18.6,0,.7-.21.69-.75C32.07,57,32.09,54.84,32.09,52.68ZM52.66,77.83c.59,0,1.18,0,1.76,0a2.83,2.83,0,0,0,.12-5.66c-1.24,0-2.48-.06-3.72,0a2.83,2.83,0,0,0,.08,5.66C51.48,77.85,52.07,77.83,52.66,77.83Z" fill="#315FAA" stroke="#315FAA" stroke-miterlimit="10" stroke-width="2"/><circle cx="14.66" cy="18.15" r="14.66" fill="#52A3D8"/><text transform="translate(8.33 24.02)" font-size="20.1" fill="#fff" font-family="Metropolis-Black, Metropolis" font-weight="800" letter-spacing="0.05em">1</text></svg>