<svg id="Layer_1" data-name="Layer 1" xmlns="http://www.w3.org/2000/svg" viewBox="0 0 104 102.71"><title>CentriAir_MU</title><circle cx="52.64" cy="51.36" r="49.49" fill="#fff"/><path d="M52.63,0h-.08a51.36,51.36,0,0,0,.1,102.71h0A51.36,51.36,0,1,0,52.63,0Zm0,98.7h-.07A47.31,47.31,0,0,1,19.23,17.86,47,47,0,0,1,52.63,4h.06a47.35,47.35,0,0,1,0,94.69Z" fill="#007ab7"/><path d="M29.46,55.31a3.86,3.86,0,0,1,2.89,1.35c3,3.06,6.17,6.06,9.14,9.21,1.08,1.13,1.63.94,2.62-.07,9.49-9.56,19-19.07,28.55-28.6,1-1,2-1.87,3.58-1.58a3.15,3.15,0,0,1,2.56,2.27,3.23,3.23,0,0,1-.94,3.44l-10,10L45.8,73.4c-2.23,2.22-3.81,2.23-6,0q-6.16-6.16-12.32-12.32a3.28,3.28,0,0,1-.84-3.89A3.14,3.14,0,0,1,29.46,55.31Z" fill="#007ab7"/><circle cx="14.67" cy="18.02" r="14.67" fill="#00aeef"/><text transform="translate(8.34 23.9)" font-size="20.12" fill="#fff" font-family="Roboto-Black, Roboto" font-weight="800" letter-spacing="0.05em">2</text></svg>