<svg id="Layer_1" data-name="Layer 1" xmlns="http://www.w3.org/2000/svg" viewBox="0 0 104 103.01"><title>CentriAir_MU</title><circle cx="52.17" cy="51.5" r="48.17" fill="#fff"/><path d="M52.61,0h-.09a51.51,51.51,0,0,0-.14,103h.09A51.51,51.51,0,0,0,52.61,0ZM85.93,85.15A47.06,47.06,0,0,1,52.53,99h-.17A47.47,47.47,0,0,1,52.46,4h.17a47.43,47.43,0,0,1,33.3,81.11Z" fill="#315FAA"/><path d="M69.33,27.41H64.05v-2.1a2.1,2.1,0,0,0-4.2,0v2.1H44.45v-2.1a2.1,2.1,0,0,0-4.2,0v2.1H35.66A8.73,8.73,0,0,0,27,36.13V69.8a8.72,8.72,0,0,0,8.71,8.71H69.33A8.72,8.72,0,0,0,78,69.8V36.13A8.73,8.73,0,0,0,69.33,27.41Zm-33.67,4.2h4.59V33a2.1,2.1,0,0,0,4.2,0v-1.4h15.4V33a2.1,2.1,0,0,0,4.2,0v-1.4h5.28a4.52,4.52,0,0,1,4.51,4.52v.38H31.15v-.38A4.52,4.52,0,0,1,35.66,31.61Zm33.67,42.7H35.66a4.51,4.51,0,0,1-4.51-4.51V40.71H73.84V69.8A4.51,4.51,0,0,1,69.33,74.31Z" fill="#315FAA"/><path d="M56.23,55.28h2v2.86h-2V62H52.67V58.14H45.33l-.16-2.24,7.47-11.79h3.59Zm-7.52,0h4V49l-.23.41Z" fill="#315FAA"/><path d="M38.28,65.66l1.19,3.73,1.19-3.73h1.7V71H41.07V69.77l.12-2.56L39.9,71H39L37.75,67.2l.12,2.57V71H36.58V65.66Z" fill="#315FAA"/><path d="M48.1,68.45a3.12,3.12,0,0,1-.3,1.39,2.12,2.12,0,0,1-.82.93,2.36,2.36,0,0,1-1.22.32,2.29,2.29,0,0,1-1.21-.31,2.13,2.13,0,0,1-.83-.9,3.05,3.05,0,0,1-.31-1.35v-.3a3.12,3.12,0,0,1,.29-1.39,2.07,2.07,0,0,1,.83-.92,2.25,2.25,0,0,1,1.22-.33,2.36,2.36,0,0,1,1.22.32,2.25,2.25,0,0,1,.83.92,3.32,3.32,0,0,1,.3,1.37Zm-1.32-.22A2.35,2.35,0,0,0,46.52,67a.88.88,0,0,0-.77-.41c-.65,0-1,.48-1,1.46v.39A2.36,2.36,0,0,0,45,69.66a.87.87,0,0,0,.78.42.84.84,0,0,0,.75-.41,2.22,2.22,0,0,0,.27-1.2Z" fill="#315FAA"/><path d="M53.61,71H52.33l-1.9-3.33V71H49.14V65.66h1.29L52.32,69V65.66h1.29Z" fill="#315FAA"/><path d="M58.9,66.66H57.29V71H56V66.66H54.43v-1H58.9Z" fill="#315FAA"/><path d="M64.3,71H63V68.78h-1.9V71h-1.3V65.66h1.3v2.13H63V65.66H64.3Z" fill="#315FAA"/><path d="M68.26,69.59a.56.56,0,0,0-.2-.44,2.69,2.69,0,0,0-.71-.32c-.33-.12-.61-.23-.82-.33a1.55,1.55,0,0,1-1-1.41,1.2,1.2,0,0,1,.26-.78,1.56,1.56,0,0,1,.73-.53,2.8,2.8,0,0,1,1.07-.19,2.59,2.59,0,0,1,1,.2,1.69,1.69,0,0,1,.72.59,1.58,1.58,0,0,1,.25.87H68.26a.66.66,0,0,0-.2-.51.77.77,0,0,0-.54-.18.86.86,0,0,0-.55.16.47.47,0,0,0-.2.38.5.5,0,0,0,.22.38,3,3,0,0,0,.78.34,4.67,4.67,0,0,1,.91.39,1.53,1.53,0,0,1,.87,1.38,1.31,1.31,0,0,1-.53,1.1,2.33,2.33,0,0,1-1.45.4,3,3,0,0,1-1.18-.23,1.8,1.8,0,0,1-.8-.64,1.66,1.66,0,0,1-.26-.94h1.29a.83.83,0,0,0,.22.64,1.1,1.1,0,0,0,.73.2.82.82,0,0,0,.5-.14A.44.44,0,0,0,68.26,69.59Z" fill="#315FAA"/><circle cx="14.63" cy="19.04" r="14.63" fill="#52A3D8"/><text transform="translate(8.32 24.9)" font-size="20.07" fill="#fff" font-family="Metropolis-Black, Metropolis" font-weight="800" letter-spacing="0.05em">5</text></svg>