<svg id="Layer_1" data-name="Layer 1" xmlns="http://www.w3.org/2000/svg" viewBox="0 0 104 102.72"><title>CentriAir_MU</title><circle cx="52.31" cy="51.36" r="48.03" fill="#fff"/><path d="M52.76,0h-.09a51.36,51.36,0,0,0-.15,102.72h.1A51.36,51.36,0,0,0,52.76,0ZM86,84.91A46.91,46.91,0,0,1,52.68,98.7h-.17A47.34,47.34,0,0,1,52.61,4h.16A47.3,47.3,0,0,1,86,84.91Z" fill="#315FAA"/><path d="M69.43,27.34H64.16v-2.1a2.1,2.1,0,0,0-4.19,0v2.1H44.61v-2.1a2.09,2.09,0,1,0-4.18,0v2.1H35.85A8.7,8.7,0,0,0,27.16,36V69.6a8.7,8.7,0,0,0,8.69,8.69H69.43a8.7,8.7,0,0,0,8.69-8.69V36A8.7,8.7,0,0,0,69.43,27.34ZM35.85,31.53h4.58v1.39a2.09,2.09,0,1,0,4.18,0V31.53H60v1.39a2.1,2.1,0,1,0,4.19,0V31.53h5.27a4.51,4.51,0,0,1,4.5,4.5v.38H31.35V36A4.51,4.51,0,0,1,35.85,31.53ZM69.43,74.1H35.85a4.51,4.51,0,0,1-4.5-4.5v-29H73.93v29A4.51,4.51,0,0,1,69.43,74.1Z" fill="#315FAA"/><path d="M47.51,61.85H44V48.18l-4.23,1.31V46.61L47.12,44h.39Z" fill="#315FAA"/><path d="M56.92,51.34h1.89a2.67,2.67,0,0,0,2-.67,2.49,2.49,0,0,0,.65-1.79,2.18,2.18,0,0,0-.65-1.68A2.5,2.5,0,0,0,59,46.6a2.64,2.64,0,0,0-1.71.55,1.82,1.82,0,0,0-.68,1.46H53.1a4.3,4.3,0,0,1,.76-2.51A5,5,0,0,1,56,44.36a7.1,7.1,0,0,1,3-.62,6.69,6.69,0,0,1,4.44,1.35A4.61,4.61,0,0,1,65,48.83a3.76,3.76,0,0,1-.75,2.26,4.93,4.93,0,0,1-2,1.58,4.4,4.4,0,0,1,2.25,1.62,4.35,4.35,0,0,1,.74,2.55,4.7,4.7,0,0,1-1.73,3.82A7,7,0,0,1,59,62.09a6.61,6.61,0,0,1-4.37-1.41A4.61,4.61,0,0,1,52.88,57h3.55a2,2,0,0,0,.75,1.64,2.75,2.75,0,0,0,1.86.64,2.78,2.78,0,0,0,2-.67,2.28,2.28,0,0,0,.72-1.77c0-1.78-1-2.67-3-2.67H56.92Z" fill="#315FAA"/><path d="M38.46,65.48l1.19,3.71,1.19-3.71h1.69v5.34H41.24V69.57L41.37,67l-1.29,3.8h-.85L37.93,67l.12,2.55v1.25H36.77V65.48Z" fill="#315FAA"/><path d="M48.25,68.26A3.18,3.18,0,0,1,48,69.64a2.19,2.19,0,0,1-.82.93,2.36,2.36,0,0,1-1.22.32,2.32,2.32,0,0,1-1.21-.31,2.11,2.11,0,0,1-.82-.9,3,3,0,0,1-.31-1.34V68a3,3,0,0,1,.29-1.38,2.12,2.12,0,0,1,.82-.93,2.3,2.3,0,0,1,1.22-.33,2.22,2.22,0,0,1,1.21.33,2.07,2.07,0,0,1,.83.92,3,3,0,0,1,.3,1.36ZM46.94,68a2.27,2.27,0,0,0-.26-1.2.87.87,0,0,0-.77-.42c-.64,0-1,.49-1,1.46v.39a2.29,2.29,0,0,0,.26,1.21.84.84,0,0,0,.77.42.82.82,0,0,0,.75-.42,2.16,2.16,0,0,0,.27-1.19Z" fill="#315FAA"/><path d="M53.75,70.82H52.47L50.58,67.5v3.32H49.29V65.48h1.29l1.89,3.32V65.48h1.28Z" fill="#315FAA"/><path d="M59,66.47h-1.6v4.35H56.14V66.47H54.56v-1H59Z" fill="#315FAA"/><path d="M64.41,70.82H63.13V68.59h-1.9v2.23H60V65.48h1.28V67.6h1.9V65.48h1.28Z" fill="#315FAA"/><path d="M68.36,69.4a.53.53,0,0,0-.2-.44,2.71,2.71,0,0,0-.7-.33,7.73,7.73,0,0,1-.83-.32,1.57,1.57,0,0,1-1-1.41,1.28,1.28,0,0,1,.26-.78,1.81,1.81,0,0,1,.74-.53,2.94,2.94,0,0,1,1.06-.19,2.43,2.43,0,0,1,1,.21,1.6,1.6,0,0,1,.71.59,1.5,1.5,0,0,1,.26.86H68.36a.64.64,0,0,0-.2-.5.77.77,0,0,0-.54-.18.87.87,0,0,0-.54.15.45.45,0,0,0-.2.39.47.47,0,0,0,.22.37,2.73,2.73,0,0,0,.77.34,4.67,4.67,0,0,1,.91.39,1.52,1.52,0,0,1,.87,1.37,1.3,1.3,0,0,1-.53,1.1,2.35,2.35,0,0,1-1.45.4,3,3,0,0,1-1.18-.23A1.82,1.82,0,0,1,65.7,70a1.64,1.64,0,0,1-.27-.93h1.29a.81.81,0,0,0,.23.63,1,1,0,0,0,.72.2.82.82,0,0,0,.5-.13A.44.44,0,0,0,68.36,69.4Z" fill="#315FAA"/><circle cx="14.59" cy="18.98" r="14.59" fill="#52A3D8"/><text transform="translate(8.3 24.83)" font-size="20.01" fill="#fff" font-family="Metropolis-Black, Metropolis" font-weight="800" letter-spacing="0.05em">6</text></svg>