<svg id="Layer_1" data-name="Layer 1" xmlns="http://www.w3.org/2000/svg" viewBox="0 0 72.05 72"><title>CentriAir_MU</title><path d="M16.91,64.58c-.6,3-1.65,3.88-4.62,3.89-3.49,0-7,0-10.46,0-.65,0-1.29,0-1.67-.65s0-1.21.35-1.76c.82-1.38,1.62-2.78,2.49-4.13a1.11,1.11,0,0,0,0-1.4C2.09,59.14,1.27,57.72.43,56.3S0,54.05,1.65,54.06c.66,0,.83-.1.82-.84-.06-5.78,0-11.56,0-17.34A3.11,3.11,0,0,1,4,33.08a1.47,1.47,0,0,0,.75-1.54c0-5.85,0-11.71,0-17.56A3.74,3.74,0,0,1,8.61,9.93,44.06,44.06,0,0,0,32.93,1.41a6.89,6.89,0,0,1,2-1.24,3.76,3.76,0,0,1,3.57.76A44.18,44.18,0,0,0,56.41,9.07a38.39,38.39,0,0,0,6.68.85c2.8.08,4.2,1.5,4.21,4.28,0,5.81,0,11.63,0,17.45A1.4,1.4,0,0,0,68,33.07a3.32,3.32,0,0,1,1.6,3c0,5.78,0,11.56,0,17.34,0,.52.12.59.58.61,2,.1,2.36.75,1.29,2.54-.76,1.28-1.48,2.6-2.32,3.83a1.3,1.3,0,0,0,0,1.69c.86,1.36,1.67,2.75,2.49,4.14s.31,2.21-1.3,2.21H59.76c-3,0-4-.87-4.61-3.84-1.31.72-2.57,1.47-3.88,2.13a61.66,61.66,0,0,1-14.53,5.17,4.92,4.92,0,0,1-2.3-.21A58.71,58.71,0,0,1,16.91,64.58ZM36.14,34.84H6.75c-1.65,0-2,.33-2,1.94V52.09c0,1.63.33,1.95,2,1.95H65.29c1.69,0,2-.32,2-2.06V36.9c0-1.77-.3-2.06-2.1-2.06ZM36,32.43c7.68,0,15.37,0,23.06,0,.83,0,1.07-.18,1.06-1,0-4.5-.05-9,0-13.5,0-.86-.28-1.08-1.05-1.15a42.07,42.07,0,0,1-7-1.35A52.11,52.11,0,0,1,36.65,8.5c-.39-.26-.67-.41-1.16-.08A51.71,51.71,0,0,1,12.9,16.79c-.78.09-.94.37-.94,1.11,0,4.47,0,8.93,0,13.39,0,1,.24,1.17,1.17,1.16C20.74,32.41,28.35,32.43,36,32.43ZM7.21,22.68c0,2.89.06,5.78,0,8.67,0,1,.38,1.12,1.22,1.11s1.25-.06,1.24-1.11c-.06-5,0-10,0-15,0-1.38.21-1.64,1.58-1.78A50.24,50.24,0,0,0,33.55,6.83c2.92-1.87,2-1.93,4.92,0a49.85,49.85,0,0,0,22.24,7.76c1.6.17,1.73.37,1.73,2,0,5,0,10,0,15,0,.9.39,1,1.07.9.53-.09,1.38.46,1.37-.8,0-5.93,0-11.86,0-17.79a1.29,1.29,0,0,0-1.43-1.47c-1.12,0-2.25-.1-3.36-.24A47,47,0,0,1,37.29,3,1.78,1.78,0,0,0,34.8,3a46.75,46.75,0,0,1-26,9.37c-1.27.07-1.57.38-1.57,1.65Q7.21,18.35,7.21,22.68ZM18.56,56.49a17.66,17.66,0,0,0,4.06,3.11A52.94,52.94,0,0,0,33.38,64c1.32.38,2.57.86,4,.42,4.76-1.45,9.45-3.07,13.64-5.84a9.24,9.24,0,0,0,2.35-2.07Zm-1.68,1.86c-.07,3.74-.66,2.83,2.3,4.75a47.79,47.79,0,0,0,11.87,5.2c2.63.82,5.16,1.59,8,.64,5-1.66,10-3.35,14.44-6.26,1.88-1.22,2.11-2,1.52-4.31a22.41,22.41,0,0,1-4.88,3.57,54.89,54.89,0,0,1-10.46,4.25c-1.41.41-2.83,1.22-4.35.81C28.73,65.24,22.27,63.09,16.88,58.35ZM3.35,66h9.7a1.09,1.09,0,0,0,1.08-.47c.28-.53-.26-.72-.52-1-2.4-2.43-4.87-4.79-7.21-7.27-.89-.95-1.81-.89-3-.72.69,1.14,1.23,2.21,1.93,3.16a2.33,2.33,0,0,1,0,3.06C4.62,63.76,4.07,64.81,3.35,66Zm65.37-9.58c-1.09.16-2-.26-2.7.51-2.56,2.62-5.17,5.2-7.75,7.79-.2.2-.55.37-.4.73a.88.88,0,0,0,.8.52l.22,0h9.8c-.8-1.35-1.47-2.54-2.21-3.69a1.77,1.77,0,0,1,0-2.16C67.22,59,67.89,57.84,68.72,56.44ZM14.41,61.78V57.06c0-.33,0-.59-.45-.58-1.58,0-3.16,0-4.81,0Zm43.23-.44,5-4.86c-1.34,0-2.83,0-4.33,0-.45,0-.66.1-.65.61C57.66,58.61,57.64,60.13,57.64,61.34Z" fill="#315FAA"/><text transform="translate(29.09 30.57)" font-size="24.19" fill="#315FAA" font-family="Metropolis-Bold, Metropolis" font-weight="700">5</text><text transform="translate(9.07 50.9)" font-size="17.35" fill="#315FAA" font-family="Metropolis-Bold, Metropolis" font-weight="700">YEARS</text></svg>