<svg xmlns="http://www.w3.org/2000/svg" width="104" height="102.722" viewBox="0 0 104 102.722">
  <g id="Group_224" data-name="Group 224" transform="translate(-2064.5 -1573.913)">
    <g id="Group_222" data-name="Group 222">
      <g id="Group_219" data-name="Group 219">
        <circle id="Ellipse_35" data-name="Ellipse 35" cx="48.033" cy="48.033" r="48.033" transform="translate(2068.778 1577.242)" fill="#fff"/>
        <path id="Path_754" data-name="Path 754" d="M2117.259,1573.913h-.094a51.361,51.361,0,0,0-.141,102.722h.095a51.361,51.361,0,0,0,.14-102.722Zm33.222,84.914a46.942,46.942,0,0,1-33.3,13.783h-.171a47.336,47.336,0,0,1,.1-94.672h.168a47.3,47.3,0,0,1,33.207,80.889Z" fill="#007ab7"/>
      </g>
      <path id="Path_755" data-name="Path 755" d="M2133.927,1601.252h-5.27v-2.094a2.094,2.094,0,0,0-4.188,0v2.094h-15.356v-2.094a2.094,2.094,0,0,0-4.188,0v2.094h-4.572a8.7,8.7,0,0,0-8.69,8.689v33.575a8.7,8.7,0,0,0,8.69,8.689h33.574a8.7,8.7,0,0,0,8.69-8.689v-33.575A8.7,8.7,0,0,0,2133.927,1601.252Zm-33.574,4.188h4.572v1.4a2.094,2.094,0,1,0,4.188,0v-1.4h15.356v1.4a2.094,2.094,0,1,0,4.188,0v-1.4h5.27a4.507,4.507,0,0,1,4.5,4.5v.385h-42.578v-.385A4.507,4.507,0,0,1,2100.353,1605.44Zm33.574,42.577h-33.574a4.507,4.507,0,0,1-4.5-4.5v-29h42.578v29A4.507,4.507,0,0,1,2133.927,1648.017Z" fill="#007ab7"/>
      <g id="Group_220" data-name="Group 220">
        <path id="Path_756" data-name="Path 756" d="M2112.006,1635.76h-3.546v-13.669l-4.233,1.313v-2.883l7.4-2.65h.381Z" fill="#007ab7"/>
        <path id="Path_757" data-name="Path 757" d="M2121.416,1625.257h1.89a2.664,2.664,0,0,0,2-.675,2.473,2.473,0,0,0,.65-1.791,2.188,2.188,0,0,0-.644-1.681,2.5,2.5,0,0,0-1.773-.6,2.619,2.619,0,0,0-1.706.558,1.786,1.786,0,0,0-.687,1.454H2117.6a4.359,4.359,0,0,1,.754-2.509,5.032,5.032,0,0,1,2.11-1.736,7.047,7.047,0,0,1,2.988-.626,6.686,6.686,0,0,1,4.442,1.355,4.63,4.63,0,0,1,1.607,3.736,3.758,3.758,0,0,1-.749,2.258,4.855,4.855,0,0,1-1.963,1.583,4.446,4.446,0,0,1,2.252,1.619,4.393,4.393,0,0,1,.742,2.553,4.7,4.7,0,0,1-1.736,3.816,6.985,6.985,0,0,1-4.6,1.435,6.616,6.616,0,0,1-4.374-1.411,4.608,4.608,0,0,1-1.7-3.73h3.546a2.053,2.053,0,0,0,.754,1.644,3.149,3.149,0,0,0,3.841-.031,2.307,2.307,0,0,0,.717-1.772q0-2.676-2.945-2.675h-1.877Z" fill="#007ab7"/>
      </g>
      <g id="Group_221" data-name="Group 221">
        <path id="Path_758" data-name="Path 758" d="M2102.958,1639.391l1.193,3.717,1.188-3.717h1.695v5.342h-1.291v-1.247l.125-2.554-1.291,3.8h-.851l-1.3-3.8.124,2.557v1.247h-1.288v-5.342Z" fill="#007ab7"/>
        <path id="Path_759" data-name="Path 759" d="M2112.751,1642.172a3.158,3.158,0,0,1-.289,1.384,2.149,2.149,0,0,1-.824.926,2.3,2.3,0,0,1-1.216.324,2.34,2.34,0,0,1-1.211-.313,2.134,2.134,0,0,1-.823-.9,3.039,3.039,0,0,1-.31-1.338v-.3a3.167,3.167,0,0,1,.288-1.385,2.128,2.128,0,0,1,.825-.926,2.441,2.441,0,0,1,2.434,0,2.16,2.16,0,0,1,.827.919,3.063,3.063,0,0,1,.3,1.367Zm-1.309-.224a2.247,2.247,0,0,0-.266-1.208.852.852,0,0,0-.761-.413q-.969,0-1.024,1.453l0,.392a2.319,2.319,0,0,0,.26,1.207.852.852,0,0,0,.775.422.842.842,0,0,0,.752-.414,2.255,2.255,0,0,0,.268-1.193Z" fill="#007ab7"/>
        <path id="Path_760" data-name="Path 760" d="M2118.252,1644.733h-1.28l-1.894-3.324v3.324h-1.287v-5.342h1.287l1.89,3.324v-3.324h1.284Z" fill="#007ab7"/>
        <path id="Path_761" data-name="Path 761" d="M2123.529,1640.386h-1.6v4.347h-1.288v-4.347h-1.574v-.995h4.465Z" fill="#007ab7"/>
        <path id="Path_762" data-name="Path 762" d="M2128.912,1644.733h-1.281v-2.23h-1.9v2.23h-1.288v-5.342h1.288v2.121h1.9v-2.121h1.281Z" fill="#007ab7"/>
        <path id="Path_763" data-name="Path 763" d="M2132.857,1643.313a.527.527,0,0,0-.2-.44,2.478,2.478,0,0,0-.7-.327,6.725,6.725,0,0,1-.822-.326,1.556,1.556,0,0,1-1.038-1.4,1.249,1.249,0,0,1,.259-.782,1.666,1.666,0,0,1,.731-.529,2.855,2.855,0,0,1,1.065-.189,2.5,2.5,0,0,1,1.032.2,1.638,1.638,0,0,1,.71.586,1.526,1.526,0,0,1,.253.868h-1.284a.647.647,0,0,0-.2-.507.776.776,0,0,0-.541-.18.877.877,0,0,0-.545.153.449.449,0,0,0,.02.759,2.8,2.8,0,0,0,.774.345,4.714,4.714,0,0,1,.911.383,1.532,1.532,0,0,1,.865,1.376,1.306,1.306,0,0,1-.528,1.1,2.353,2.353,0,0,1-1.449.4,2.881,2.881,0,0,1-1.176-.233,1.77,1.77,0,0,1-.792-.638,1.657,1.657,0,0,1-.266-.934h1.291a.817.817,0,0,0,.222.633,1.047,1.047,0,0,0,.721.2.824.824,0,0,0,.5-.137A.451.451,0,0,0,2132.857,1643.313Z" fill="#007ab7"/>
      </g>
    </g>
    <g id="Group_223" data-name="Group 223">
      <circle id="Ellipse_36" data-name="Ellipse 36" cx="14.59" cy="14.59" r="14.59" transform="translate(2064.5 1578.308)" fill="#00aeef"/>
      <text id="_6" data-name="6" transform="translate(2072.796 1598.745)" fill="#fff" font-size="20.009" font-family="Roboto-Black, Roboto" font-weight="800" letter-spacing="0.05em"><tspan x="0" y="0">6</tspan></text>
    </g>
  </g>
</svg>
