<svg id="Layer_1" data-name="Layer 1" xmlns="http://www.w3.org/2000/svg" viewBox="0 0 72 72"><title>CentriAir2_text</title><circle cx="35.77" cy="36" r="33.66" fill="#fff"/><path d="M36.08,0H36a36,36,0,0,0-.1,72H36a36,36,0,0,0,.1-72ZM59.36,59.51A32.89,32.89,0,0,1,36,69.17h-.12A33.14,33.14,0,0,1,12.64,12.49,32.89,32.89,0,0,1,36,2.83h.11A33.14,33.14,0,0,1,59.36,59.51Z" fill="#315FAA"/><circle cx="35.77" cy="36" r="33.66" fill="#fff"/><path d="M36.08,0H36a36,36,0,0,0-.1,72H36a36,36,0,0,0,.1-72ZM59.36,59.51A32.89,32.89,0,0,1,36,69.17h-.12A33.14,33.14,0,0,1,12.64,12.49,32.89,32.89,0,0,1,36,2.83h.11A33.14,33.14,0,0,1,59.36,59.51Z" fill="#315FAA"/><path d="M63.27,30.56A6.24,6.24,0,0,0,63,28.67,5.21,5.21,0,0,0,57.68,25H14a5.14,5.14,0,0,0-5.45,5.51V43.3a5.31,5.31,0,0,0,.25,1.88,5.12,5.12,0,0,0,5.28,3.63H48.64c3,0,6,0,9,.05a5.62,5.62,0,0,0,4.13-1.6,5.49,5.49,0,0,0,1.55-4.05c-.06-3-.05-6.14,0-9.13C63.26,32.89,63.26,31.73,63.27,30.56ZM61.5,43.23a3.47,3.47,0,0,1-3.79,3.82H14.41c-2.77,0-4.06-1.29-4.06-4.08V30.63c0-2.49,1.36-3.86,3.84-3.86H57.66c2.47,0,3.84,1.37,3.84,3.85Z" fill="#315FAA" stroke="#315FAA" stroke-miterlimit="10"/><path d="M52.59,40.88H19.29a5.16,5.16,0,0,0-.7,0,.82.82,0,0,0-.73.82.85.85,0,0,0,.74.88,4.16,4.16,0,0,0,.63,0H52.58a4.17,4.17,0,0,0,.73,0,.86.86,0,0,0,0-1.68A4.06,4.06,0,0,0,52.59,40.88Z" fill="#315FAA" stroke="#315FAA" stroke-miterlimit="10"/><path d="M55.29,30.31a.86.86,0,0,0-.84.88.84.84,0,0,0,.27.61.87.87,0,0,0,1.48-.64.84.84,0,0,0-.27-.61.87.87,0,0,0-.61-.24Z" fill="#315FAA" stroke="#315FAA" stroke-miterlimit="10"/></svg>