<svg xmlns="http://www.w3.org/2000/svg" width="104" height="102.72" viewBox="0 0 104 102.72">
  <g id="Group_298" data-name="Group 298" transform="translate(-2064.5 -1365.555)">
    <g id="Group_208" data-name="Group 208">
      <circle id="Ellipse_29" data-name="Ellipse 29" cx="48.033" cy="48.033" r="48.033" transform="translate(2068.778 1368.882)" fill="#fff"/>
      <path id="Path_735" data-name="Path 735" d="M2117.259,1365.555h-.094a51.36,51.36,0,0,0-.141,102.72h.095a51.36,51.36,0,0,0,.14-102.72Zm33.222,84.913a46.942,46.942,0,0,1-33.3,13.783h-.171a47.336,47.336,0,0,1,.1-94.672h.169a47.3,47.3,0,0,1,33.207,80.889Z" fill="#315FAA"/>
      <g id="Group_206" data-name="Group 206">
        <path id="Path_736" data-name="Path 736" d="M2120.849,1441.061l.126.18c.016.028.036.066.06.118a15.2,15.2,0,0,0,13.85,8.948,16.4,16.4,0,0,0,3.588-.4,15.228,15.228,0,0,0,.064-29.6l-.321-.084,0-.331q.016-4.243.009-8.491l-.012-3.666.008-2.411c.01-2.537.02-5.162-.023-7.771a7.11,7.11,0,0,0-6.06-6.9,14.684,14.684,0,0,0-2.685-.138c-.477.007-.954.01-1.432-.013a6.693,6.693,0,0,0-.906.049c-.179.019-.44.038-.626.045l-.453.015.012-.453c0-.163.03-.388.05-.553a5.86,5.86,0,0,0,.054-.856,1.919,1.919,0,0,0-1.857-2.053,1.81,1.81,0,0,0-1.37.43,2.241,2.241,0,0,0-.7,1.6,11.667,11.667,0,0,0-.02,1.339l.024.452-.453,0c-4.867-.026-10.069-.027-15.9,0l-.452,0,.025-.452a10.246,10.246,0,0,0-.051-1.649,1.808,1.808,0,0,0-1.9-1.72,1.843,1.843,0,0,0-1.941,1.82,15.019,15.019,0,0,0-.027,1.548l.016.449-.449-.006c-.512-.008-1.025,0-1.543,0h-.112c-.7.006-1.407.012-2.111-.009a7.5,7.5,0,0,0-5.624,2.09,7.878,7.878,0,0,0-2.275,5.694c.071,7.95.059,16.037.049,23.859v.132q-.009,5.525-.009,11.052c0,4.68,3.056,7.705,7.777,7.706h.966q11.094,0,22.186-.009a.7.7,0,0,1,.1-.007.815.815,0,0,1,.148.015Zm22.135-13.92a11.169,11.169,0,0,1,3.271,7.986,11.408,11.408,0,0,1-11.365,11.316,11.17,11.17,0,0,1-7.987-3.345,11.327,11.327,0,1,1,16.081-15.957Zm-49.637-27.17c.028-.409.027-.808.026-1.195a12.688,12.688,0,0,1,.047-1.434,3.287,3.287,0,0,1,3.182-2.92c.514-.012,1.028-.016,1.543-.016l1.129.005c.611,0,1.223.005,1.837,0l.446-.006-.014.447c-.019.542,0,1.071.021,1.519a1.838,1.838,0,0,0,1.936,1.89,1.864,1.864,0,0,0,1.929-1.749,5.5,5.5,0,0,0,.028-.779l0-.23c0-.289,0-.5.007-.669l.014-.4.4-.015c.2-.008.468-.008.714-.008l3.849,0c3.73.005,7.583.007,11.376-.024l.47-.005-.041.469a7.075,7.075,0,0,0,.045,1.7,1.943,1.943,0,0,0,3.87-.228c0-.071,0-.144,0-.218v-.106c.01-.517.019-.931.05-1.193l.04-.34.34-.034c.259-.028.658-.028,1.153-.027l1.11,0c.7,0,1.4-.006,2.1.006a3.318,3.318,0,0,1,3.368,3.158c.03.422.027.853.024,1.311,0,.383-.007.736.006,1.093l.015.446-.446,0c-2.117-.019-4.236-.017-6.353-.013l-2.357,0h-16.434q-7.5-.006-15,.019l-.459,0Zm26.436,36.686.052.474h-.477c-7.562-.015-15.124,0-22.685-.021a3.274,3.274,0,0,1-3.282-3.031,9.14,9.14,0,0,1-.038-.97v-6.941c0-7.032,0-14.306-.027-21.459l0-.418.55-.069c5.1.028,10.189.024,15.288.021h9.282q7.74,0,15.478-.019h.432l0,.431c-.039,4.725-.04,9.57,0,14.81l0,.4-.394.032a15.436,15.436,0,0,0-10.939,5.7A15.181,15.181,0,0,0,2119.783,1436.657Z" fill="#315FAA"/>
        <path id="Path_737" data-name="Path 737" d="M2125.2,1416.312c-.031-1.076-.791-2.332-2.83-2.334q-9.825-.008-19.653,0a2.964,2.964,0,0,0-2.207.763,2.267,2.267,0,0,0-.617,1.7c.019.865.408,2.314,2.791,2.317s4.74,0,7.11,0h8.052l4.493,0a2.994,2.994,0,0,0,2.248-.8A2.2,2.2,0,0,0,2125.2,1416.312Z" fill="#315FAA"/>
        <path id="Path_738" data-name="Path 738" d="M2114.263,1422.651c-1.373-.01-2.746-.008-4.119-.006l-1.71,0-1.6,0q-2.116-.006-4.229.005a2.813,2.813,0,0,0-2.119.739,2.251,2.251,0,0,0-.594,1.7c.016.536.258,2.284,2.7,2.29q2.8.006,5.6.006,3.022,0,6.047-.007a2.413,2.413,0,0,0,2.7-2.351C2116.951,1423.6,2115.9,1422.664,2114.263,1422.651Z" fill="#315FAA"/>
        <path id="Path_739" data-name="Path 739" d="M2131.373,1441.256a2.375,2.375,0,0,0,3.559.051q2.394-2.284,4.784-4.573l3.768-3.6a2.629,2.629,0,0,0,.882-1.853l0-.051,0-.052a2.3,2.3,0,0,0-1.451-2.074,2.487,2.487,0,0,0-2.8.679q-1.328,1.273-2.661,2.541-2.133,2.031-4.253,4.075c-.966-1.01-2.035-2.081-3.259-3.267a2.577,2.577,0,0,0-1.954-.832,2.173,2.173,0,0,0-1.574.835,2.35,2.35,0,0,0,.188,3.349q2.2,2.214,4.414,4.416Z" fill="#315FAA"/>
      </g>
      <g id="Group_207" data-name="Group 207">
        <circle id="Ellipse_30" data-name="Ellipse 30" cx="14.59" cy="14.59" r="14.59" transform="translate(2064.5 1368.882)" fill="#52A3D8"/>
        <text id="_3" data-name="3" transform="translate(2072.796 1389.319)" fill="#fff" font-size="20.009" font-family="Roboto-Black, Roboto" font-weight="800" letter-spacing="0.05em"><tspan x="0" y="0">3</tspan></text>
      </g>
    </g>
  </g>
</svg>
