<svg id="Layer_1" data-name="Layer 1" xmlns="http://www.w3.org/2000/svg" xmlns:xlink="http://www.w3.org/1999/xlink" viewBox="0 0 13.86 13.86"><defs><clipPath id="clip-path"><rect x="-991" y="-389" width="1144" height="315" fill="none"/></clipPath></defs><title>CentriAir2_text</title><path d="M0,12.9A1.18,1.18,0,0,1,.42,12L5.24,7.2c.21-.21.25-.31,0-.54C3.62,5.05,2,3.42.38,1.8A1,1,0,0,1,.07.64,1,1,0,0,1,1.76.34c1,.94,1.91,1.9,2.87,2.86.69.69,1.4,1.38,2.08,2.09.19.2.28.16.45,0Q9.6,2.82,12.07.37a1,1,0,0,1,1.71.26,1,1,0,0,1-.29,1.16L9.38,5.91c-.27.26-.52.54-.8.79s-.17.29,0,.46l4.89,4.89a1,1,0,0,1,.31,1.16,1,1,0,0,1-1.69.31L9.23,10.65C8.55,10,7.86,9.3,7.19,8.6c-.19-.2-.3-.22-.51,0-1.61,1.64-3.24,3.25-4.86,4.87a1,1,0,0,1-1.28.28A1,1,0,0,1,0,12.9Z" fill="#f01849"/></svg>