<svg id="Layer_1" data-name="Layer 1" xmlns="http://www.w3.org/2000/svg" viewBox="0 0 16 16"><title>CentriAir_MU</title><path d="M8.14,0A7.83,7.83,0,0,0,.3,7.45c0,.12,0,.23,0,.34a7.68,7.68,0,0,0,1.13,4L0,16l4.35-1.38A7.87,7.87,0,0,0,16,7.79a1.21,1.21,0,0,0,0-.19A7.81,7.81,0,0,0,8.14,0Zm0,14.35a6.57,6.57,0,0,1-3.63-1.09L2,14.07l.83-2.43A6.52,6.52,0,0,1,1.54,7.79q0-.32,0-.63a6.6,6.6,0,0,1,13.15.12,4.36,4.36,0,0,1,0,.51A6.59,6.59,0,0,1,8.14,14.35Z" fill="#fff"/><path d="M11.74,9.37c-.19-.1-1.14-.56-1.31-.62s-.31-.1-.44.09-.5.62-.61.75-.22.14-.42.05a5.39,5.39,0,0,1-1.54-1A5.86,5.86,0,0,1,6.35,7.37.27.27,0,0,1,6.43,7c.09-.09.19-.23.29-.34l.07-.09a1.61,1.61,0,0,0,.12-.23A.35.35,0,0,0,6.9,6c-.05-.1-.44-1-.6-1.42S6,4.25,5.87,4.25H5.5A.68.68,0,0,0,5,4.47a2.16,2.16,0,0,0-.68,1.6,2.38,2.38,0,0,0,.1.65A4.45,4.45,0,0,0,5.1,8a7.83,7.83,0,0,0,3.29,2.89c2,.76,2,.51,2.31.47a2,2,0,0,0,1.3-.9,1.57,1.57,0,0,0,.11-.91C12.06,9.51,11.93,9.46,11.74,9.37Z" fill="#fff"/></svg>