<svg xmlns="http://www.w3.org/2000/svg" width="22.729" height="22.729" viewBox="0 0 22.729 22.729">
  <g id="Group_296" data-name="Group 296" transform="translate(-1368.5 -306.195)">
    <path id="Path_822" data-name="Path 822" d="M1374.511,317.558a.894.894,0,0,1,.667.311c.705.708,1.426,1.4,2.112,2.126.248.263.375.218.6-.014q3.287-3.312,6.593-6.606a.9.9,0,0,1,.825-.363.722.722,0,0,1,.592.523.745.745,0,0,1-.218.794q-1.152,1.155-2.306,2.308-2.548,2.549-5.1,5.1c-.514.513-.879.516-1.386.009q-1.423-1.421-2.843-2.844a.75.75,0,0,1-.194-.9A.719.719,0,0,1,1374.511,317.558Z" fill="#315FAA"/>
    <circle id="Ellipse_43" data-name="Ellipse 43" cx="10.365" cy="10.365" r="10.365" transform="translate(1369.5 307.195)" fill="none" stroke="#315FAA" stroke-miterlimit="10" stroke-width="2"/>
  </g>
</svg>
