<svg xmlns="http://www.w3.org/2000/svg" width="104" height="102.714" viewBox="0 0 104 102.714">
  <g id="Group_205" data-name="Group 205" transform="translate(-1752.5 -1365.179)">
    <g id="Group_203" data-name="Group 203">
      <circle id="Ellipse_27" data-name="Ellipse 27" cx="49.485" cy="49.485" r="49.485" transform="translate(1755.658 1367.051)" fill="#fff"/>
      <path id="Path_733" data-name="Path 733" d="M1805.126,1365.179h-.077a51.357,51.357,0,0,0,.1,102.714h.014a51.357,51.357,0,1,0-.033-102.714Zm.031,98.7h-.063a47.347,47.347,0,0,1,.035-94.694h.065a47.347,47.347,0,0,1-.037,94.694Z" fill="#315FAA"/>
      <path id="Path_734" data-name="Path 734" d="M1781.96,1420.49a3.886,3.886,0,0,1,2.89,1.346c3.05,3.068,6.172,6.067,9.143,9.21,1.075,1.136,1.623.943,2.621-.063q14.234-14.346,28.55-28.608c1.007-1.01,2.047-1.864,3.575-1.572a3.136,3.136,0,0,1,2.563,2.264,3.236,3.236,0,0,1-.944,3.441q-4.988,5-9.987,9.995-11.035,11.037-22.073,22.072c-2.223,2.222-3.8,2.233-6,.039q-6.162-6.153-12.313-12.316a3.248,3.248,0,0,1-.841-3.885A3.123,3.123,0,0,1,1781.96,1420.49Z" fill="#315FAA"/>
    </g>
    <g id="Group_204" data-name="Group 204">
      <circle id="Ellipse_28" data-name="Ellipse 28" cx="14.672" cy="14.672" r="14.672" transform="translate(1752.5 1368.525)" fill="#52A3D8"/>
      <text id="_2" data-name="2" transform="translate(1760.843 1389.077)" fill="#fff" font-size="20.122" font-family="Metropolis-Black, Metropolis" font-weight="800" letter-spacing="0.05em"><tspan x="0" y="0">2</tspan></text>
    </g>
  </g>
</svg>
