<svg xmlns="http://www.w3.org/2000/svg" width="104" height="103.384" viewBox="0 0 104 103.384">
  <g id="Group_212" data-name="Group 212" transform="translate(-1440.5 -1576.382)">
    <g id="Group_210" data-name="Group 210">
      <circle id="Ellipse_31" data-name="Ellipse 31" cx="48.335" cy="48.335" r="48.335" transform="translate(1444.142 1579.74)" fill="#fff"/>
      <path id="Path_740" data-name="Path 740" d="M1492.927,1576.382h-.093a51.692,51.692,0,0,0-.144,103.384h.1a51.692,51.692,0,0,0,.142-103.384Zm33.425,85.449a47.227,47.227,0,0,1-33.507,13.868h-.171a47.625,47.625,0,0,1,.1-95.25h.169a47.59,47.59,0,0,1,33.409,81.382Z" fill="#315FAA"/>
      <g id="Group_209" data-name="Group 209">
        <path id="Path_741" data-name="Path 741" d="M1486.842,1605.982q8.619,0,17.238,0c1.977,0,2.766.788,2.776,2.757.009,1.515.009,1.515,1.476,1.515,2.341,0,4.683.039,7.023-.014a2.8,2.8,0,0,1,2.839,1.773c1.8,3.681,3.679,7.323,5.5,10.995a34.957,34.957,0,0,0,4.03,5.583,4.735,4.735,0,0,1,1.088,3.112c-.052,4.15-.017,8.3-.021,12.45,0,1.947-.743,2.675-2.71,2.679-1.6,0-3.193.027-4.788-.013a1,1,0,0,0-1.156.764,8.522,8.522,0,0,1-16.037-.024,1.018,1.018,0,0,0-1.163-.74c-3.654.027-7.307.035-10.96-.006a1.073,1.073,0,0,0-1.193.851,8.545,8.545,0,0,1-16.063-.174.854.854,0,0,0-.984-.669c-1.56.033-3.121.025-4.681.006a2.136,2.136,0,1,1,0-4.265c1.525-.017,3.051-.03,4.575.008a.9.9,0,0,0,1.062-.709,8.539,8.539,0,0,1,16.131-.187c.251.674.505.914,1.244.9,3.618-.046,7.236-.036,10.854-.006a1.008,1.008,0,0,0,1.14-.773,8.529,8.529,0,0,1,16.155.042c.214.575.47.784,1.062.724,1.046-.106,2.446.45,3.047-.226.519-.584.173-1.953.178-2.974.011-2.341-.015-4.683.016-7.023a2.208,2.208,0,0,0-.538-1.544c-.724-.871-1.432-1.761-2.083-2.687a1.5,1.5,0,0,0-1.418-.668c-5.072.026-10.144.017-15.216.013-1.985,0-2.705-.706-2.709-2.678-.009-4.363.005-8.726-.007-13.088-.005-1.674.243-1.428-1.483-1.43q-15.909-.012-31.817-.006c-1.533,0-2.407-.742-2.443-2.037a2.1,2.1,0,0,1,2.373-2.232Q1478.01,1605.974,1486.842,1605.982Zm25.985,17.185c1.771,0,3.543-.025,5.313.012.708.015.773-.178.471-.767q-1.857-3.625-3.659-7.28a.913.913,0,0,0-.958-.6q-3.187.047-6.375,0c-.6-.01-.784.161-.776.769q.049,3.559,0,7.119c-.009.611.183.777.777.765C1509.355,1623.143,1511.091,1623.167,1512.827,1623.167Zm-.758,17.194a4.264,4.264,0,0,0-4.23,4.263,4.347,4.347,0,0,0,4.333,4.3,4.415,4.415,0,0,0,4.26-4.3A4.328,4.328,0,0,0,1512.069,1640.361Zm-33.526,4.245a4.27,4.27,0,0,0,4.28,4.322,4.377,4.377,0,0,0,4.25-4.282,4.275,4.275,0,0,0-4.317-4.28A4.172,4.172,0,0,0,1478.543,1644.606Z" fill="#315FAA"/>
        <path id="Path_742" data-name="Path 742" d="M1475.48,1614.787c2.945,0,5.889.005,8.833,0a2.2,2.2,0,0,1,2.347,1.44,2.167,2.167,0,0,1-2.172,2.881c-1.168.049-2.34.011-3.511.011-4.753,0-9.506.012-14.259-.006-1.835-.007-2.907-1.32-2.408-2.873.311-.965,1.08-1.44,2.445-1.446C1469.663,1614.778,1472.572,1614.787,1475.48,1614.787Z" fill="#315FAA"/>
        <path id="Path_743" data-name="Path 743" d="M1471.946,1627.51c-2.907,0-5.814.008-8.72,0-1.576-.005-2.519-.792-2.549-2.087-.03-1.317.973-2.2,2.558-2.2q8.773-.011,17.547,0a2.2,2.2,0,0,1,2.444,1.732,2.1,2.1,0,0,1-2.24,2.546C1477.973,1627.529,1474.96,1627.509,1471.946,1627.51Z" fill="#315FAA"/>
        <path id="Path_744" data-name="Path 744" d="M1471.316,1631.683c1.561,0,3.121-.018,4.681.005a2.113,2.113,0,0,1,2.33,2.077,2.137,2.137,0,0,1-2.329,2.2q-4.734.035-9.469,0a2.149,2.149,0,1,1,0-4.278C1468.124,1631.666,1469.72,1631.683,1471.316,1631.683Z" fill="#315FAA"/>
      </g>
    </g>
    <g id="Group_211" data-name="Group 211">
      <circle id="Ellipse_32" data-name="Ellipse 32" cx="14.578" cy="14.578" r="14.578" transform="translate(1440.5 1578.996)" fill="#52A3D8"/>
      <text id="_4" data-name="4" transform="translate(1448.79 1599.418)" fill="#fff" font-size="19.993" font-family="Roboto-Black, Roboto" font-weight="800" letter-spacing="0.05em"><tspan x="0" y="0">4</tspan></text>
    </g>
  </g>
</svg>
