<svg xmlns="http://www.w3.org/2000/svg" width="250.185" height="237.698" viewBox="0 0 250.185 237.698">
  <g id="Group_123" data-name="Group 123" transform="translate(-5770.66 -2086)">
    <path id="Path_263" data-name="Path 263" d="M5836.75,2229.99v-36.547q0-46.685.016-93.357c0-8.945,4.828-14.219,12.641-14.084a11.951,11.951,0,0,1,12.055,11.32c.125,1.709.1,3.432.1,5.154v127.441c2.125-.447,3.031-1.963,4.133-3.062,12.391-12.361,24.688-24.809,37.141-37.111,4.75-4.709,11.125-5.111,16.2-1.439a12.521,12.521,0,0,1,4.3,15.02,15.2,15.2,0,0,1-3.508,4.918q-30.5,30.483-61.016,60.971c-6.2,6.166-13.148,6.152-19.344-.029q-30.551-30.439-61-60.971c-3.836-3.834-5.508-8.23-3.742-13.609,1.617-4.977,5.18-7.711,10.172-8.512,4.719-.773,8.43,1.3,11.68,4.588q17.988,18.144,36.078,36.191C5833.7,2227.926,5834.523,2229.338,5836.75,2229.99Z" transform="translate(46.669 0)" fill="gray"/>
    <path id="Path_264" data-name="Path 264" d="M5895.492,2125.465q-55.605,0-111.2.014c-5.68.016-10.164-2.109-12.453-7.4a12.082,12.082,0,0,1,2.094-13.547c2.914-3.316,6.8-4.207,10.992-4.223q13.148-.021,26.281,0h193.313a26.958,26.958,0,0,1,6.523.49c6.461,1.621,10.1,6.328,9.773,12.926a12.187,12.187,0,0,1-11.3,11.676c-1.391.135-2.812.063-4.219.063Z" transform="translate(0.004 198.214)" fill="gray"/>
  </g>
</svg>
