<svg xmlns="http://www.w3.org/2000/svg" width="104" height="103.009" viewBox="0 0 104 103.009">
  <g id="Group_218" data-name="Group 218" transform="translate(-1752.5 -1573.77)">
    <g id="Group_216" data-name="Group 216">
      <g id="Group_213" data-name="Group 213">
        <circle id="Ellipse_33" data-name="Ellipse 33" cx="48.167" cy="48.167" r="48.167" transform="translate(1756.499 1577.107)" fill="#fff"/>
        <path id="Path_745" data-name="Path 745" d="M1805.115,1573.77h-.094a51.5,51.5,0,0,0-.142,103.009h.095a51.5,51.5,0,0,0,.141-103.009Zm33.315,85.151a47.073,47.073,0,0,1-33.4,13.822h-.172a47.469,47.469,0,0,1,.1-94.938h.169a47.434,47.434,0,0,1,33.3,81.116Z" fill="#007ab7"/>
      </g>
      <path id="Path_746" data-name="Path 746" d="M1821.83,1601.184h-5.285v-2.1a2.1,2.1,0,0,0-4.2,0v2.1h-15.4v-2.1a2.1,2.1,0,0,0-4.2,0v2.1h-4.585a8.724,8.724,0,0,0-8.714,8.714v33.669a8.724,8.724,0,0,0,8.714,8.714h33.668a8.724,8.724,0,0,0,8.714-8.714V1609.9A8.724,8.724,0,0,0,1821.83,1601.184Zm-33.668,4.2h4.585v1.4a2.1,2.1,0,1,0,4.2,0v-1.4h15.4v1.4a2.1,2.1,0,0,0,4.2,0v-1.4h5.285a4.519,4.519,0,0,1,4.514,4.514v.386h-42.7v-.386A4.52,4.52,0,0,1,1788.162,1605.384Zm33.668,42.7h-33.668a4.52,4.52,0,0,1-4.515-4.514v-29.084h42.7v29.084A4.519,4.519,0,0,1,1821.83,1648.081Z" fill="#007ab7"/>
      <g id="Group_214" data-name="Group 214">
        <path id="Path_747" data-name="Path 747" d="M1808.729,1629.047h2.03v2.866h-2.03v3.876h-3.556v-3.876h-7.345l-.16-2.239,7.468-11.8h3.593Zm-7.518,0h3.962v-6.325l-.234.406Z" fill="#007ab7"/>
      </g>
      <g id="Group_215" data-name="Group 215">
        <path id="Path_748" data-name="Path 748" d="M1790.775,1639.431l1.2,3.727,1.192-3.727h1.7v5.356h-1.3v-1.25l.125-2.561-1.3,3.811h-.854l-1.3-3.814.125,2.564v1.25h-1.292v-5.356Z" fill="#007ab7"/>
        <path id="Path_749" data-name="Path 749" d="M1800.595,1642.219a3.175,3.175,0,0,1-.29,1.388,2.148,2.148,0,0,1-.826.928,2.294,2.294,0,0,1-1.22.326,2.341,2.341,0,0,1-1.214-.314,2.144,2.144,0,0,1-.825-.9,3.046,3.046,0,0,1-.311-1.343v-.3a3.18,3.18,0,0,1,.288-1.389,2.146,2.146,0,0,1,.828-.929,2.448,2.448,0,0,1,2.441,0,2.182,2.182,0,0,1,.83.922,3.077,3.077,0,0,1,.3,1.37Zm-1.313-.224a2.251,2.251,0,0,0-.267-1.212.854.854,0,0,0-.763-.414q-.97,0-1.026,1.457l0,.393a2.32,2.32,0,0,0,.261,1.211.909.909,0,0,0,1.531.008,2.259,2.259,0,0,0,.268-1.2Z" fill="#007ab7"/>
        <path id="Path_750" data-name="Path 750" d="M1806.112,1644.787h-1.284l-1.9-3.332v3.332h-1.291v-5.356h1.291l1.9,3.333v-3.333h1.288Z" fill="#007ab7"/>
        <path id="Path_751" data-name="Path 751" d="M1811.4,1640.428H1809.8v4.359H1808.5v-4.359h-1.579v-1h4.478Z" fill="#007ab7"/>
        <path id="Path_752" data-name="Path 752" d="M1816.8,1644.787h-1.284v-2.236h-1.9v2.236h-1.291v-5.356h1.291v2.127h1.9v-2.127h1.284Z" fill="#007ab7"/>
        <path id="Path_753" data-name="Path 753" d="M1820.758,1643.364a.532.532,0,0,0-.2-.442,2.487,2.487,0,0,0-.7-.327,6.63,6.63,0,0,1-.824-.328,1.56,1.56,0,0,1-1.042-1.4,1.259,1.259,0,0,1,.26-.785,1.672,1.672,0,0,1,.734-.53,2.842,2.842,0,0,1,1.067-.19,2.5,2.5,0,0,1,1.035.206,1.641,1.641,0,0,1,.712.588,1.523,1.523,0,0,1,.254.87h-1.288a.653.653,0,0,0-.2-.509.788.788,0,0,0-.543-.179.877.877,0,0,0-.546.152.45.45,0,0,0,.02.761,2.772,2.772,0,0,0,.776.346,4.841,4.841,0,0,1,.913.384,1.537,1.537,0,0,1,.868,1.38,1.308,1.308,0,0,1-.53,1.1,2.356,2.356,0,0,1-1.453.4,2.879,2.879,0,0,1-1.179-.234,1.774,1.774,0,0,1-.795-.64,1.662,1.662,0,0,1-.266-.936h1.294a.823.823,0,0,0,.223.635,1.053,1.053,0,0,0,.723.2.832.832,0,0,0,.506-.138A.454.454,0,0,0,1820.758,1643.364Z" fill="#007ab7"/>
      </g>
    </g>
    <g id="Group_217" data-name="Group 217">
      <circle id="Ellipse_34" data-name="Ellipse 34" cx="14.631" cy="14.631" r="14.631" transform="translate(1752.5 1578.176)" fill="#00aeef"/>
      <text id="_5" data-name="5" transform="translate(1760.819 1598.67)" fill="#fff" font-size="20.065" font-family="Roboto-Black, Roboto" font-weight="800" letter-spacing="0.05em"><tspan x="0" y="0">5</tspan></text>
    </g>
  </g>
</svg>
